<svg width="302" height="109" viewBox="0 0 302 109" fill="none" xmlns="http://www.w3.org/2000/svg">
<g filter="url(#filter0_d_421_772)">
<path d="M86.3752 54.8245C91.7352 51.9667 96.3991 46.9684 97.0922 41.715C98.3254 32.3611 92.3335 25.3227 84.6828 22.0779C75.5449 18.2012 81.6423 20.9776 46.6894 11.7741C29.8895 7.35121 28.8142 3.227 29.1912 0.254639C24.6524 3.227 23.2583 19.4191 31.1258 24.2884C39.2133 29.2934 55.3266 30.3359 75.5764 36.0895C93.3795 41.1487 90.7452 50.4712 86.3752 54.8245Z" fill="url(#paint0_linear_421_772)"/>
<path d="M89.9722 57.5719C88.4259 56.6544 86.74 55.8988 84.9414 55.3333C59.615 49.5259 57.393 49.6488 48.9894 47.6057C26.0895 42.0371 28.8415 37.3986 28.2568 35.5471C24.0351 40.0491 23.9633 54.1307 31.7902 58.3547C41.2823 63.4772 57.9847 65.1504 79.1506 70.4221C86.0347 72.1367 90.0684 74.1825 93.0805 76.6056C96.4241 79.2954 97.3416 83.2277 94.779 86.5258C92.5365 89.4116 86.5446 88.9402 79.9019 88.0135C68.121 86.371 53.1831 82.9495 48.9889 81.7867C30.1433 76.5627 28.841 71.5796 28.2564 69.7289C24.0346 74.231 23.9629 88.3113 31.7898 92.5361C37.9951 95.885 43.8851 97.81 56.6518 98.5783C66.0027 99.1403 82.988 99.6672 91.3073 91.0235C92.1171 90.1834 98.5875 85.2804 99.9256 76.8343C101.171 68.9842 96.8614 61.6602 89.9722 57.5719Z" fill="url(#paint1_linear_421_772)"/>
<path d="M70.0374 52.0137C70.0352 52.0141 70.0339 52.0146 70.0312 52.015C77.6158 53.654 84.9411 55.3337 84.9411 55.3337C85.0658 55.3731 85.1899 55.4159 85.3141 55.457C85.6749 55.2541 86.0313 55.0451 86.3759 54.8234C90.745 50.4691 93.3771 41.1484 75.5763 36.0897C74.3474 35.7407 73.1344 35.4097 71.9366 35.0927C76.9267 37.1126 83.9729 48.0574 70.0374 52.0137Z" fill="url(#paint2_linear_421_772)"/>
<path d="M74.7097 86.1985C74.3712 86.4705 74.02 86.7207 73.6575 86.9542C75.785 87.3696 77.8893 87.7326 79.9013 88.0134C86.5435 88.94 92.5359 89.411 94.7784 86.5256C97.341 83.2275 96.424 79.2957 93.0799 76.6054C87.545 72.1536 80.3749 70.6489 73.0859 68.9714C78.4136 71.3945 82.885 79.6066 74.7097 86.1985Z" fill="url(#paint3_linear_421_772)"/>
</g>
<path d="M139.476 39.8038C141.097 40.1492 142.399 40.9596 143.382 42.235C144.365 43.4838 144.857 44.9186 144.857 46.5394C144.857 48.8776 144.033 50.7375 142.386 52.1192C140.765 53.4742 138.493 54.1518 135.57 54.1518H122.537V26.1731H135.132C137.975 26.1731 140.194 26.8241 141.788 28.1261C143.409 29.428 144.219 31.1949 144.219 33.4269C144.219 35.0742 143.781 36.4426 142.904 37.532C142.053 38.6214 140.911 39.3786 139.476 39.8038ZM129.353 37.4921H133.817C134.933 37.4921 135.783 37.253 136.367 36.7747C136.978 36.2699 137.284 35.5392 137.284 34.5827C137.284 33.6261 136.978 32.8955 136.367 32.3906C135.783 31.8858 134.933 31.6334 133.817 31.6334H129.353V37.4921ZM134.375 48.6517C135.517 48.6517 136.394 48.3993 137.005 47.8945C137.643 47.363 137.962 46.6058 137.962 45.6227C137.962 44.6396 137.629 43.869 136.965 43.3111C136.328 42.7531 135.437 42.4741 134.295 42.4741H129.353V48.6517H134.375ZM171.049 54.1518L165.23 43.59H163.596V54.1518H156.781V26.1731H168.219C170.425 26.1731 172.298 26.5584 173.839 27.3289C175.406 28.0995 176.576 29.1623 177.346 30.5174C178.117 31.8459 178.502 33.3339 178.502 34.9812C178.502 36.8412 177.971 38.5018 176.908 39.9632C175.871 41.4246 174.33 42.4608 172.284 43.0719L178.741 54.1518H171.049ZM163.596 38.7675H167.821C169.069 38.7675 169.999 38.462 170.611 37.8508C171.248 37.2397 171.567 36.3762 171.567 35.2602C171.567 34.1974 171.248 33.3604 170.611 32.7493C169.999 32.1382 169.069 31.8326 167.821 31.8326H163.596V38.7675ZM208.168 49.2097H197.726L196.052 54.1518H188.918L199.041 26.1731H206.933L217.056 54.1518H209.842L208.168 49.2097ZM206.415 43.9487L202.947 33.7058L199.52 43.9487H206.415ZM234.924 26.1731V54.1518H228.108V26.1731H234.924ZM272.863 54.1518H266.048L254.649 36.8943V54.1518H247.834V26.1731H254.649L266.048 43.5103V26.1731H272.863V54.1518ZM130.734 91.4075C129.054 91.4075 127.568 91.1153 126.277 90.5307C125.011 89.9462 124.012 89.1302 123.281 88.0829C122.551 87.0356 122.161 85.8665 122.112 84.5756H124.816C124.938 85.8178 125.486 86.9138 126.46 87.8637C127.434 88.7892 128.859 89.252 130.734 89.252C132.464 89.252 133.828 88.8136 134.826 87.9368C135.849 87.0356 136.361 85.903 136.361 84.5391C136.361 83.443 136.081 82.5662 135.52 81.9086C134.96 81.2266 134.266 80.7273 133.438 80.4107C132.61 80.0697 131.465 79.7044 130.004 79.3147C128.299 78.8519 126.947 78.4013 125.948 77.9629C124.95 77.5245 124.097 76.8425 123.391 75.917C122.685 74.9914 122.332 73.7371 122.332 72.1539C122.332 70.8387 122.673 69.6696 123.354 68.6466C124.036 67.5993 124.999 66.7834 126.241 66.1988C127.483 65.6143 128.908 65.322 130.515 65.322C132.878 65.322 134.778 65.9066 136.215 67.0757C137.676 68.2204 138.516 69.7061 138.735 71.5329H135.959C135.788 70.4855 135.216 69.56 134.242 68.7562C133.267 67.9281 131.952 67.5141 130.296 67.5141C128.762 67.5141 127.483 67.9281 126.46 68.7562C125.437 69.56 124.925 70.6682 124.925 72.0809C124.925 73.1525 125.206 74.0172 125.766 74.6748C126.326 75.3324 127.02 75.8317 127.848 76.1727C128.701 76.5137 129.845 76.879 131.282 77.2687C132.939 77.7315 134.278 78.1943 135.301 78.657C136.324 79.0955 137.189 79.7774 137.895 80.703C138.601 81.6285 138.955 82.8707 138.955 84.4295C138.955 85.6229 138.638 86.7555 138.005 87.8272C137.372 88.8988 136.434 89.7635 135.192 90.4211C133.949 91.0787 132.464 91.4075 130.734 91.4075ZM166.146 65.6143V67.7333H159.058V91.1518H156.501V67.7333H149.377V65.6143H166.146ZM188.963 91.4075C186.6 91.4075 184.457 90.8595 182.533 89.7635C180.609 88.6431 179.086 87.0965 177.966 85.1236C176.87 83.1264 176.322 80.8735 176.322 78.3648C176.322 75.8561 176.87 73.6153 177.966 71.6425C179.086 69.6452 180.609 68.0986 182.533 67.0026C184.457 65.8822 186.6 65.322 188.963 65.322C191.35 65.322 193.505 65.8822 195.429 67.0026C197.353 68.0986 198.864 69.6452 199.96 71.6425C201.056 73.6153 201.604 75.8561 201.604 78.3648C201.604 80.8735 201.056 83.1264 199.96 85.1236C198.864 87.0965 197.353 88.6431 195.429 89.7635C193.505 90.8595 191.35 91.4075 188.963 91.4075ZM188.963 89.1789C190.863 89.1789 192.567 88.7405 194.078 87.8637C195.588 86.9869 196.781 85.7325 197.658 84.1007C198.535 82.4444 198.973 80.5325 198.973 78.3648C198.973 76.1971 198.535 74.2973 197.658 72.6654C196.781 71.0336 195.588 69.7792 194.078 68.9024C192.567 68.0256 190.863 67.5871 188.963 67.5871C187.063 67.5871 185.358 68.0256 183.848 68.9024C182.338 69.7792 181.144 71.0336 180.268 72.6654C179.391 74.2973 178.952 76.1971 178.952 78.3648C178.952 80.5325 179.391 82.4444 180.268 84.1007C181.144 85.7325 182.338 86.9869 183.848 87.8637C185.358 88.7405 187.063 89.1789 188.963 89.1789ZM227.181 91.1518L220.86 80.4838H216.147V91.1518H213.59V65.6143H221.262C224.112 65.6143 226.267 66.2963 227.729 67.6602C229.215 69.0242 229.957 70.8143 229.957 73.0308C229.957 74.8818 229.422 76.465 228.35 77.7802C227.303 79.0711 225.744 79.9114 223.674 80.3011L230.25 91.1518H227.181ZM216.147 78.4013H221.299C223.296 78.4013 224.794 77.9142 225.793 76.9399C226.815 75.9657 227.327 74.6626 227.327 73.0308C227.327 71.3502 226.84 70.0593 225.866 69.1581C224.891 68.2326 223.357 67.7698 221.262 67.7698H216.147V78.4013ZM267.292 65.9431V91.1518H264.735V71.0214L255.748 91.1518H253.884L244.897 71.0944V91.1518H242.339V65.9431H245.043L254.798 87.7906L264.552 65.9431H267.292Z" fill="black"/>
<defs>
<filter id="filter0_d_421_772" x="22.0889" y="0.254639" width="81.3711" height="108.56" filterUnits="userSpaceOnUse" color-interpolation-filters="sRGB">
<feFlood flood-opacity="0" result="BackgroundImageFix"/>
<feColorMatrix in="SourceAlpha" type="matrix" values="0 0 0 0 0 0 0 0 0 0 0 0 0 0 0 0 0 0 127 0" result="hardAlpha"/>
<feOffset dy="6.64261"/>
<feGaussianBlur stdDeviation="1.66065"/>
<feComposite in2="hardAlpha" operator="out"/>
<feColorMatrix type="matrix" values="0 0 0 0 0 0 0 0 0 0 0 0 0 0 0 0 0 0 0.5 0"/>
<feBlend mode="normal" in2="BackgroundImageFix" result="effect1_dropShadow_421_772"/>
<feBlend mode="normal" in="SourceGraphic" in2="effect1_dropShadow_421_772" result="shape"/>
</filter>
<linearGradient id="paint0_linear_421_772" x1="119.652" y1="33.9084" x2="13.6903" y2="23.0005" gradientUnits="userSpaceOnUse">
<stop offset="0.0667" stop-color="#60A3FA"/>
<stop offset="0.6848" stop-color="#1A73E6"/>
<stop offset="0.9636" stop-color="#0153C0"/>
</linearGradient>
<linearGradient id="paint1_linear_421_772" x1="25.4107" y1="67.1987" x2="100.14" y2="67.1987" gradientUnits="userSpaceOnUse">
<stop offset="0.0364" stop-color="#0050B8"/>
<stop offset="0.3152" stop-color="#0062E0"/>
<stop offset="0.9333" stop-color="#6EADFE"/>
</linearGradient>
<linearGradient id="paint2_linear_421_772" x1="80.9189" y1="42.7958" x2="67.9565" y2="59.1953" gradientUnits="userSpaceOnUse">
<stop offset="0.0364" stop-color="#1877F2"/>
<stop offset="0.3152" stop-color="#3A8CF7"/>
<stop offset="0.9333" stop-color="#60A5FD"/>
</linearGradient>
<linearGradient id="paint3_linear_421_772" x1="84.7408" y1="75.914" x2="76.9524" y2="102.298" gradientUnits="userSpaceOnUse">
<stop offset="0.0364" stop-color="#1877F2"/>
<stop offset="0.3152" stop-color="#6FAEFF"/>
<stop offset="0.9333" stop-color="#6AABFF"/>
</linearGradient>
</defs>
</svg>
