<svg width="23" height="20" viewBox="0 0 23 20" fill="none" xmlns="http://www.w3.org/2000/svg">
<g clip-path="url(#clip0_406_333)">
<path d="M22.9339 10.1962C22.9003 10.1222 22.0886 8.36062 20.2841 6.59531C17.8796 4.24312 14.8427 3 11.5 3C8.15733 3 5.12037 4.24312 2.71591 6.59531C0.911367 8.36062 0.0958242 10.125 0.0661159 10.1962C0.0225243 10.2922 0 10.396 0 10.5009C0 10.6059 0.0225243 10.7097 0.0661159 10.8056C0.0996576 10.8797 0.911367 12.6403 2.71591 14.4056C5.12037 16.7569 8.15733 18 11.5 18C14.8427 18 17.8796 16.7569 20.2841 14.4056C22.0886 12.6403 22.9003 10.8797 22.9339 10.8056C22.9775 10.7097 23 10.6059 23 10.5009C23 10.396 22.9775 10.2922 22.9339 10.1962ZM11.5 16.5C8.55025 16.5 5.97329 15.4509 3.84004 13.3828C2.96474 12.5313 2.22006 11.5603 1.62916 10.5C2.2199 9.43963 2.96459 8.4686 3.84004 7.61719C5.97329 5.54906 8.55025 4.5 11.5 4.5C14.4498 4.5 17.0267 5.54906 19.16 7.61719C20.037 8.4684 20.7833 9.43942 21.3756 10.5C20.6847 11.7619 17.6745 16.5 11.5 16.5ZM9.79625 6.59531C8.88645 6.59531 9.70084 6.26392 8.94437 6.75839C8.18791 7.25285 7.59831 7.95566 7.25015 8.77792C6.90199 9.60019 6.81089 10.505 6.98838 11.3779C7.16588 12.2508 7.60398 13.0526 8.24731 13.682C8.89063 14.3113 9.71027 14.7399 10.6026 14.9135C11.4949 15.0872 12.4198 14.9981 13.2603 14.6575C14.1009 14.3169 14.8193 13.7401 15.3248 13.0001C15.8302 12.2601 14.5 12.5381 14.5 11.6481C14.4987 10.455 12.3624 10.7584 11.5 9.91473C10.6376 9.07109 10.6026 7.37967 9.79625 6.59531ZM11.5 13.5C10.8935 13.5 10.3006 13.3241 9.79625 12.9944C9.29194 12.6648 8.89888 12.1962 8.66677 11.6481C8.43466 11.0999 8.37393 10.4967 8.49226 9.91473C8.61058 9.33279 8.90266 8.79824 9.33154 8.37868C9.76042 7.95912 10.3068 7.6734 10.9017 7.55764C9.33154 6.52159 12.6999 9.68767 13.2603 9.91473C13.8206 10.1418 12.3367 9.42138 12.6736 9.91473C13.0106 10.4081 12.7703 10.5249 13.6685 10.8056C13.6685 11.6013 14.2436 12.0587 13.6685 12.6213C13.0933 13.1839 12.3133 13.5 11.5 13.5Z" fill="#B1B1B1"/>
</g>
<path d="M4 1L22 19Z" fill="#B1B1B1"/>
<path d="M4 1L22 19" stroke="#B1B1B1" stroke-width="2" stroke-linecap="round" stroke-linejoin="round"/>
<defs>
<clipPath id="clip0_406_333">
<rect width="23" height="15" fill="white" transform="translate(0 3)"/>
</clipPath>
</defs>
</svg>
