<svg width="6" height="4" viewBox="0 0 6 4" fill="none" xmlns="http://www.w3.org/2000/svg">
<path d="M2.95004 2.79289L0.719434 0.146447C0.554853 -0.0488155 0.288016 -0.0488155 0.123435 0.146447C-0.0411451 0.341709 -0.0411451 0.658291 0.123435 0.853553L2.65204 3.85355C2.81662 4.04882 3.08346 4.04882 3.24804 3.85355L5.77665 0.853553C5.94123 0.658291 5.94123 0.341709 5.77665 0.146447C5.61207 -0.0488155 5.34523 -0.0488155 5.18065 0.146447L2.95004 2.79289Z" fill="#565656"/>
<mask id="mask0_408_541" style="mask-type:luminance" maskUnits="userSpaceOnUse" x="0" y="0" width="6" height="4">
<path d="M2.95004 2.79289L0.719434 0.146447C0.554853 -0.0488155 0.288016 -0.0488155 0.123435 0.146447C-0.0411451 0.341709 -0.0411451 0.658291 0.123435 0.853553L2.65204 3.85355C2.81662 4.04882 3.08346 4.04882 3.24804 3.85355L5.77665 0.853553C5.94123 0.658291 5.94123 0.341709 5.77665 0.146447C5.61207 -0.0488155 5.34523 -0.0488155 5.18065 0.146447L2.95004 2.79289Z" fill="white"/>
</mask>
<g mask="url(#mask0_408_541)">
</g>
</svg>
