<svg width="30" height="34" viewBox="0 0 30 34" fill="none" xmlns="http://www.w3.org/2000/svg">
<path fill-rule="evenodd" clip-rule="evenodd" d="M0 11.3165L12.9005 18.7646C13.0394 18.8448 13.1851 18.9027 13.3333 18.9395V33.3847L0.920065 26.0385C0.349784 25.701 0 25.0876 0 24.4249V11.3165ZM30 11.1185V24.4249C30 25.0876 29.6502 25.701 29.0799 26.0385L16.6667 33.3847V18.8129C16.6969 18.7978 16.7269 18.7817 16.7566 18.7646L30 11.1185V11.1185Z" fill="#FEC53D"/>
<path opacity="0.499209" fill-rule="evenodd" clip-rule="evenodd" d="M0.404297 7.70142C0.561872 7.50244 0.76076 7.33426 0.992639 7.21076L14.1176 0.2201C14.6686 -0.0733665 15.3295 -0.0733665 15.8805 0.2201L29.0055 7.21076C29.1843 7.30596 29.3434 7.42771 29.4791 7.56966L15.089 15.8778C14.9943 15.9325 14.9071 15.995 14.8276 16.064C14.7481 15.995 14.6609 15.9325 14.5662 15.8778L0.404297 7.70142Z" fill="#FEC53D"/>
</svg>
