<svg width="2000" height="2000" viewBox="0 0 2000 2000" fill="none" xmlns="http://www.w3.org/2000/svg">
<g clip-path="url(#clip0_423_1494)">
<mask id="mask0_423_1494" style="mask-type:luminance" maskUnits="userSpaceOnUse" x="0" y="0" width="2000" height="2000">
<path d="M2000 2000H0V0H2000V2000Z" fill="white"/>
</mask>
<g mask="url(#mask0_423_1494)">
<path d="M1892.1 1906H107.9V1900.3H1891.5L1892.1 1906Z" fill="#6D6D6C"/>
<path d="M976.1 1900.2L1724.9 1900.8C1815 1900.8 1888.1 1844 1888.2 1773.8L1890.8 311.1C1890.8 219.3 1818 183.9 1727.9 183.8L979 183.2C888.9 183.2 815.7 214.9 815.7 310.2L813.1 1772.9C813 1843.1 886 1900.1 976.1 1900.2Z" fill="#2D2B2A"/>
<path d="M966.899 211.2L1608.5 211.7L1740 211.8C1805.2 211.8 1858.1 253.1 1858 304L1855.4 1780.9C1855.3 1831.7 1802.4 1872.9 1737.1 1872.8L963.999 1872.2C898.699 1872.2 845.899 1830.9 845.899 1780L848.599 303.1C848.699 252.3 901.599 211.1 966.899 211.2Z" fill="white"/>
<path d="M1039.9 311.8L1669.6 315.2C1673.2 315.2 1676.2 312.3 1676.2 308.7L1676.4 273.4C1676.5 269.7 1673.5 266.8 1669.9 266.7L1040.2 263.3C1036.5 263.3 1033.6 266.3 1033.6 269.9L1033.4 305.2C1033.3 308.8 1036.3 311.8 1039.9 311.8Z" fill="#CECECE"/>
<g opacity="0.85">
<path d="M918.7 269.9L918.5 303.8L960.3 304.1L960.5 270.1L918.7 269.9Z" fill="#191716"/>
<path d="M960.5 270.101L960.3 304.101H970.1L970.3 270.201L960.5 270.101Z" fill="#FFDC88"/>
<path d="M971.4 297.1H977.3L977.4 277.2H971.5L971.4 297.1Z" fill="#17334C"/>
</g>
<g opacity="0.85">
<path d="M1776.7 303.5L1786.8 303.6L1787 262.9L1776.9 262.8L1776.7 303.5Z" fill="#FFDC88"/>
<path d="M1762.7 303.4L1772.8 303.5L1773 270L1762.9 269.9L1762.7 303.4Z" fill="#191716"/>
<path d="M1748.7 303.4H1758.8L1759 277.6H1748.9L1748.7 303.4Z" fill="#191716"/>
<path d="M1734.7 303.3H1744.9L1745 282.8L1734.9 282.7L1734.7 303.3Z" fill="#191716"/>
</g>
<path d="M845.899 1780L1855.4 1780.9L1866.3 1794.7L1819.5 1877.4H912.699C912.699 1877.4 805.499 1814.8 845.899 1780Z" fill="#2D2B2A"/>
<path d="M1391.7 1841.1C1391.7 1863.5 1373.9 1881.7 1352 1881.7C1330 1881.7 1312.2 1863.5 1312.2 1841.1C1312.2 1818.6 1330 1800.4 1352 1800.4C1373.9 1800.4 1391.7 1818.6 1391.7 1841.1Z" fill="#CECECE"/>
<path d="M1684.5 654.4L1685 1298.9C1685 1300 1684.2 1300.9 1683.1 1300.9L1019.6 1301.4C1018.5 1301.4 1017.6 1300.6 1017.6 1299.5L1016.9 484.4C1016.9 483.3 1017.8 482.5 1018.9 482.5L1501.4 482L1501.5 624.8C1501.5 641.2 1514.8 654.5 1531.3 654.5L1684.5 654.4Z" fill="#F4F4F4" stroke="#C1C1C1" stroke-width="2" stroke-miterlimit="10"/>
<path d="M1607.7 830.5C1607.7 842 1598.3 851.4 1586.8 851.4L1115.1 851.8C1103.6 851.8 1094.2 842.5 1094.2 830.9C1094.2 819.4 1103.5 810 1115.1 810L1586.8 809.6C1598.3 809.6 1607.7 819 1607.7 830.5Z" fill="#C1C1C1"/>
<path d="M1607.9 1122.8C1607.9 1134.3 1598.6 1143.6 1587.1 1143.7L1115.3 1144.1C1103.8 1144.1 1094.5 1134.7 1094.4 1123.2C1094.4 1111.7 1103.8 1102.3 1115.3 1102.3L1587 1101.9C1598.6 1101.9 1607.9 1111.2 1607.9 1122.8Z" fill="#C1C1C1"/>
<path d="M1607.8 976.6C1607.8 988.2 1598.5 997.5 1586.9 997.6L1115.2 998C1103.7 998 1094.3 988.6 1094.3 977.1C1094.3 965.5 1103.7 956.2 1115.2 956.1L1586.9 955.7C1598.4 955.7 1607.8 965.1 1607.8 976.6Z" fill="#C1C1C1"/>
<path d="M1529.3 604L1529.2 500.4L1663.3 626.6L1552 626.7C1539.5 626.7 1529.3 616.5 1529.3 604Z" fill="#C1C1C1"/>
<path d="M1221.9 894.5L1269.8 841.5L1358 921.3L1438.7 832.1L1490.2 878.7L1409.6 967.9L1498.3 1048.2L1450.4 1101.1L1361.7 1020.9L1281 1110.1L1229.5 1063.5L1310.1 974.3L1221.9 894.5Z" fill="#FFDC88"/>
<path d="M1526.3 1112.2L1545.1 1130.4L1559.3 1144.6L1528.9 1174.6L1515 1161.1L1496.5 1143.2L1526.3 1112.2Z" fill="#D3D3D3"/>
<path d="M1559.3 1144.6C1561.6 1144.6 1563.8 1145.4 1565.5 1147L1758.9 1355.3C1769.3 1365.4 1771.2 1380.4 1761.1 1390.8C1753.1 1399.1 1745.9 1399.7 1736.1 1395.2C1733.4 1394 1730.9 1392.3 1728.6 1390.1L1530.8 1178.8C1529.6 1177.7 1529 1176.2 1528.9 1174.6L1559.3 1144.6Z" fill="#7C7C7C"/>
<path opacity="0.05" d="M1496.5 1143.2L1515 1161.1C1528.5 1149.7 1533.9 1144 1545.1 1130.4L1526.3 1112.2L1496.5 1143.2Z" fill="black"/>
<g opacity="0.54">
<path opacity="0.38" d="M1229.5 805.7L1479.6 1145.4C1479.6 1145.4 1525 1130.4 1520.1 1110.8C1515.2 1091.3 1259.5 786.1 1259.5 786.1C1259.5 786.1 1223.1 788.1 1229.5 805.7Z" fill="#F9F9F9"/>
<path opacity="0.38" d="M1307 767.3L1559.8 1039.9C1559.8 1039.9 1597 1019.9 1570.9 981.3C1544.9 942.7 1334 762.1 1334 762.1C1334 762.1 1308.3 727.9 1307 767.3Z" fill="#F9F9F9"/>
<path opacity="0.38" d="M1360.7 1171.4C1359.2 1174.8 1355.4 1176.8 1351.6 1176C1305.5 1166.6 1266.6 1148.6 1236.2 1122.3C1211.7 1101.3 1192.7 1074.9 1179.5 1044.1C1157.2 991.9 1159.7 945.2 1159.8 943.2C1160.1 938.7 1164 935.2 1168.5 935.5C1173.1 935.8 1176.5 939.7 1176.3 944.2C1176.3 944.7 1174 989.5 1195 1038.2C1222.8 1103 1276.6 1144 1354.9 1159.9C1359.3 1160.8 1362.2 1165.1 1361.3 1169.6C1361.17 1170.2 1360.97 1170.8 1360.7 1171.4Z" fill="#F9F9F9"/>
</g>
<path fill-rule="evenodd" clip-rule="evenodd" d="M1458.1 755C1515.9 781.2 1560.1 828.3 1582.5 887.7C1604.8 947.2 1602.7 1011.7 1576.6 1069.5C1550.4 1127.4 1503.2 1171.5 1443.8 1193.9C1384.4 1216.3 1319.9 1214.2 1262.1 1188C1204.2 1161.8 1160.1 1114.7 1137.7 1055.3C1115.3 995.9 1117.4 931.3 1143.6 873.5C1169.8 815.6 1216.9 771.5 1276.3 749.1C1335.7 726.7 1400.3 728.8 1458.1 755ZM1447.2 779.2C1341.1 731.2 1215.8 778.4 1167.8 884.4C1119.8 990.4 1167 1115.8 1273 1163.8C1379 1211.8 1504.4 1164.6 1552.4 1058.6C1600.4 952.5 1553.2 827.2 1447.2 779.2Z" fill="#7C7C7C"/>
<path d="M1468 1634H1235.1C1214.1 1634 1197 1617 1197 1595.9V1592.1C1197 1571.1 1214.1 1554 1235.1 1554H1468C1489 1554 1506.1 1571.1 1506.1 1592.1V1595.9C1506.1 1617 1489 1634 1468 1634Z" fill="#FFDC88"/>
<path d="M229 229.7C284.3 215.4 340.7 248.7 354.9 304C358.4 317.8 359 331.6 357.1 344.8L399.3 411.5L325.6 405.1C313.3 416.7 298 425.4 280.5 429.9C225.2 444.1 168.9 410.8 154.7 355.5C140.4 300.2 173.7 243.9 229 229.7Z" fill="white" stroke="#191716" stroke-width="4" stroke-miterlimit="10"/>
<path d="M324.7 235.4C324.7 235.4 268.6 193.1 209.4 220.9" stroke="#191716" stroke-width="4" stroke-miterlimit="10" stroke-linecap="round"/>
<path d="M197.9 227.3C197.9 227.3 188.2 232.5 185.1 237.5" stroke="#191716" stroke-width="4" stroke-miterlimit="10" stroke-linecap="round"/>
</g>
<path d="M1278.82 1588.31C1278.62 1587.62 1278.34 1587.01 1277.98 1586.48C1277.62 1585.94 1277.18 1585.49 1276.66 1585.12C1276.15 1584.74 1275.56 1584.45 1274.9 1584.25C1274.24 1584.05 1273.52 1583.95 1272.72 1583.95C1271.24 1583.95 1269.93 1584.32 1268.8 1585.06C1267.69 1585.8 1266.82 1586.87 1266.19 1588.28C1265.57 1589.69 1265.25 1591.4 1265.25 1593.43C1265.25 1595.45 1265.56 1597.18 1266.18 1598.6C1266.79 1600.02 1267.66 1601.1 1268.79 1601.85C1269.92 1602.59 1271.25 1602.96 1272.78 1602.96C1274.17 1602.96 1275.36 1602.71 1276.35 1602.22C1277.34 1601.72 1278.1 1601.01 1278.62 1600.1C1279.15 1599.19 1279.41 1598.12 1279.41 1596.88L1280.66 1597.06H1273.16V1592.43H1285.34V1596.1C1285.34 1598.65 1284.8 1600.85 1283.72 1602.69C1282.64 1604.52 1281.15 1605.93 1279.26 1606.92C1277.36 1607.91 1275.2 1608.4 1272.75 1608.4C1270.03 1608.4 1267.63 1607.8 1265.57 1606.59C1263.5 1605.38 1261.89 1603.66 1260.74 1601.44C1259.59 1599.2 1259.02 1596.55 1259.02 1593.48C1259.02 1591.12 1259.36 1589.02 1260.04 1587.18C1260.73 1585.32 1261.7 1583.75 1262.94 1582.46C1264.18 1581.17 1265.62 1580.19 1267.27 1579.52C1268.92 1578.85 1270.7 1578.51 1272.62 1578.51C1274.27 1578.51 1275.81 1578.75 1277.23 1579.24C1278.65 1579.71 1279.91 1580.38 1281.01 1581.25C1282.11 1582.12 1283.02 1583.16 1283.72 1584.36C1284.42 1585.56 1284.87 1586.87 1285.07 1588.31H1278.82ZM1316.69 1593.45C1316.69 1596.63 1316.09 1599.33 1314.89 1601.55C1313.69 1603.78 1312.07 1605.48 1310 1606.65C1307.95 1607.82 1305.64 1608.4 1303.07 1608.4C1300.48 1608.4 1298.16 1607.81 1296.11 1606.64C1294.05 1605.46 1292.43 1603.76 1291.24 1601.54C1290.04 1599.31 1289.45 1596.62 1289.45 1593.45C1289.45 1590.28 1290.04 1587.58 1291.24 1585.36C1292.43 1583.13 1294.05 1581.44 1296.11 1580.27C1298.16 1579.1 1300.48 1578.51 1303.07 1578.51C1305.64 1578.51 1307.95 1579.1 1310 1580.27C1312.07 1581.44 1313.69 1583.13 1314.89 1585.36C1316.09 1587.58 1316.69 1590.28 1316.69 1593.45ZM1310.46 1593.45C1310.46 1591.4 1310.15 1589.67 1309.53 1588.26C1308.93 1586.84 1308.07 1585.77 1306.96 1585.05C1305.85 1584.32 1304.56 1583.95 1303.07 1583.95C1301.58 1583.95 1300.28 1584.32 1299.18 1585.05C1298.07 1585.77 1297.21 1586.84 1296.59 1588.26C1295.99 1589.67 1295.68 1591.4 1295.68 1593.45C1295.68 1595.51 1295.99 1597.24 1296.59 1598.65C1297.21 1600.06 1298.07 1601.13 1299.18 1601.86C1300.28 1602.59 1301.58 1602.96 1303.07 1602.96C1304.56 1602.96 1305.85 1602.59 1306.96 1601.86C1308.07 1601.13 1308.93 1600.06 1309.53 1598.65C1310.15 1597.24 1310.46 1595.51 1310.46 1593.45ZM1330.5 1608V1578.91H1342.15C1344.29 1578.91 1346.08 1579.23 1347.51 1579.86C1348.94 1580.5 1350.01 1581.38 1350.73 1582.5C1351.45 1583.62 1351.81 1584.91 1351.81 1586.37C1351.81 1587.5 1351.58 1588.5 1351.13 1589.36C1350.68 1590.22 1350.05 1590.92 1349.25 1591.47C1348.47 1592.01 1347.57 1592.39 1346.56 1592.62V1592.9C1347.66 1592.95 1348.7 1593.26 1349.67 1593.84C1350.64 1594.42 1351.43 1595.23 1352.04 1596.27C1352.65 1597.3 1352.95 1598.53 1352.95 1599.96C1352.95 1601.5 1352.56 1602.88 1351.8 1604.09C1351.04 1605.3 1349.92 1606.25 1348.43 1606.95C1346.94 1607.65 1345.11 1608 1342.93 1608H1330.5ZM1336.66 1602.97H1341.67C1343.38 1602.97 1344.63 1602.64 1345.42 1601.99C1346.21 1601.33 1346.6 1600.45 1346.6 1599.35C1346.6 1598.54 1346.4 1597.83 1346.02 1597.22C1345.63 1596.6 1345.07 1596.12 1344.35 1595.77C1343.64 1595.42 1342.8 1595.24 1341.81 1595.24H1336.66V1602.97ZM1336.66 1591.08H1341.22C1342.06 1591.08 1342.81 1590.94 1343.46 1590.64C1344.12 1590.34 1344.64 1589.91 1345.02 1589.36C1345.41 1588.81 1345.6 1588.16 1345.6 1587.39C1345.6 1586.34 1345.23 1585.49 1344.48 1584.85C1343.74 1584.2 1342.69 1583.88 1341.33 1583.88H1336.66V1591.08ZM1361.96 1608H1355.37L1365.42 1578.91H1373.34L1383.37 1608H1376.78L1369.49 1585.56H1369.27L1361.96 1608ZM1361.55 1596.57H1377.12V1601.37H1361.55V1596.57ZM1411.17 1589.09H1404.95C1404.84 1588.29 1404.61 1587.57 1404.25 1586.95C1403.9 1586.31 1403.45 1585.77 1402.91 1585.33C1402.36 1584.88 1401.72 1584.54 1401 1584.31C1400.29 1584.07 1399.52 1583.95 1398.69 1583.95C1397.18 1583.95 1395.87 1584.33 1394.75 1585.07C1393.63 1585.81 1392.77 1586.89 1392.15 1588.31C1391.54 1589.72 1391.23 1591.44 1391.23 1593.45C1391.23 1595.53 1391.54 1597.27 1392.15 1598.68C1392.78 1600.09 1393.65 1601.16 1394.77 1601.88C1395.88 1602.6 1397.18 1602.96 1398.64 1602.96C1399.47 1602.96 1400.23 1602.85 1400.93 1602.63C1401.64 1602.41 1402.27 1602.1 1402.82 1601.68C1403.37 1601.25 1403.82 1600.74 1404.18 1600.13C1404.55 1599.52 1404.81 1598.83 1404.95 1598.06L1411.17 1598.09C1411.01 1599.42 1410.61 1600.71 1409.97 1601.95C1409.33 1603.18 1408.47 1604.28 1407.39 1605.26C1406.32 1606.22 1405.05 1606.99 1403.56 1607.56C1402.08 1608.12 1400.41 1608.4 1398.54 1608.4C1395.95 1608.4 1393.63 1607.81 1391.58 1606.64C1389.55 1605.46 1387.94 1603.76 1386.75 1601.54C1385.58 1599.31 1384.99 1596.62 1384.99 1593.45C1384.99 1590.28 1385.59 1587.58 1386.78 1585.36C1387.98 1583.13 1389.6 1581.44 1391.64 1580.27C1393.69 1579.1 1395.99 1578.51 1398.54 1578.51C1400.23 1578.51 1401.79 1578.75 1403.23 1579.22C1404.68 1579.7 1405.96 1580.39 1407.08 1581.3C1408.2 1582.2 1409.11 1583.3 1409.81 1584.61C1410.52 1585.91 1410.97 1587.41 1411.17 1589.09ZM1415.58 1608V1578.91H1421.73V1591.74H1422.12L1432.59 1578.91H1439.96L1429.16 1591.93L1440.09 1608H1432.73L1424.76 1596.04L1421.73 1599.73V1608H1415.58Z" fill="black"/>
<path d="M1223.48 1407V1479H1210.33L1179.01 1433.68H1178.48V1479H1163.26V1407H1176.62L1207.7 1452.28H1208.33V1407H1223.48ZM1302.22 1443C1302.22 1450.85 1300.73 1457.53 1297.76 1463.04C1294.8 1468.55 1290.77 1472.75 1285.66 1475.66C1280.58 1478.54 1274.86 1479.98 1268.51 1479.98C1262.11 1479.98 1256.37 1478.53 1251.28 1475.62C1246.19 1472.72 1242.17 1468.51 1239.22 1463C1236.27 1457.5 1234.79 1450.83 1234.79 1443C1234.79 1435.15 1236.27 1428.47 1239.22 1422.96C1242.17 1417.45 1246.19 1413.26 1251.28 1410.38C1256.37 1407.47 1262.11 1406.02 1268.51 1406.02C1274.86 1406.02 1280.58 1407.47 1285.66 1410.38C1290.77 1413.26 1294.8 1417.45 1297.76 1422.96C1300.73 1428.47 1302.22 1435.15 1302.22 1443ZM1286.79 1443C1286.79 1437.91 1286.03 1433.62 1284.5 1430.13C1283 1426.64 1280.88 1423.99 1278.14 1422.19C1275.4 1420.38 1272.19 1419.48 1268.51 1419.48C1264.83 1419.48 1261.62 1420.38 1258.87 1422.19C1256.13 1423.99 1254 1426.64 1252.48 1430.13C1250.98 1433.62 1250.23 1437.91 1250.23 1443C1250.23 1448.09 1250.98 1452.37 1252.48 1455.87C1254 1459.36 1256.13 1462.01 1258.87 1463.81C1261.62 1465.62 1264.83 1466.52 1268.51 1466.52C1272.19 1466.52 1275.4 1465.62 1278.14 1463.81C1280.88 1462.01 1283 1459.36 1284.5 1455.87C1286.03 1452.37 1286.79 1448.09 1286.79 1443ZM1361.93 1479H1336.41V1407H1362.15C1369.39 1407 1375.62 1408.44 1380.85 1411.32C1386.08 1414.18 1390.09 1418.3 1392.91 1423.66C1395.74 1429.03 1397.16 1435.45 1397.16 1442.93C1397.16 1450.43 1395.74 1456.87 1392.91 1462.27C1390.09 1467.66 1386.05 1471.79 1380.78 1474.68C1375.53 1477.56 1369.25 1479 1361.93 1479ZM1351.63 1465.96H1361.3C1365.8 1465.96 1369.59 1465.16 1372.66 1463.57C1375.75 1461.95 1378.07 1459.45 1379.62 1456.08C1381.19 1452.68 1381.97 1448.3 1381.97 1442.93C1381.97 1437.61 1381.19 1433.26 1379.62 1429.89C1378.07 1426.51 1375.76 1424.03 1372.69 1422.43C1369.62 1420.84 1365.84 1420.04 1361.34 1420.04H1351.63V1465.96ZM1416.79 1479H1400.47L1425.33 1407H1444.95L1469.77 1479H1453.46L1435.42 1423.45H1434.86L1416.79 1479ZM1415.77 1450.7H1454.3V1462.58H1415.77V1450.7ZM1466.89 1419.55V1407H1526.03V1419.55H1503.98V1479H1488.94V1419.55H1466.89ZM1539.38 1479H1523.06L1547.92 1407H1567.54L1592.36 1479H1576.04L1558.01 1423.45H1557.45L1539.38 1479ZM1538.36 1450.7H1576.89V1462.58H1538.36V1450.7Z" fill="#919191"/>
<path d="M265.082 240.909L262.091 350.903H234.017L230.949 240.909H265.082ZM248.054 399.994C242.991 399.994 238.645 398.205 235.014 394.625C231.384 390.994 229.594 386.648 229.645 381.585C229.594 376.574 231.384 372.278 235.014 368.699C238.645 365.119 242.991 363.33 248.054 363.33C252.912 363.33 257.182 365.119 260.864 368.699C264.545 372.278 266.412 376.574 266.463 381.585C266.412 384.96 265.517 388.054 263.778 390.866C262.091 393.628 259.866 395.852 257.105 397.54C254.344 399.176 251.327 399.994 248.054 399.994Z" fill="#FFDC88"/>
<mask id="mask1_423_1494" style="mask-type:luminance" maskUnits="userSpaceOnUse" x="0" y="0" width="2000" height="2000">
<path d="M2000 2000H0V0H2000V2000Z" fill="white"/>
</mask>
<g mask="url(#mask1_423_1494)">
<path d="M665.2 820.3C665.2 820.3 650.3 827.6 657.1 838C664 848.5 682.8 844.9 682.8 844.9L665.2 820.3Z" fill="#FFDC88"/>
<path d="M494.8 978.7L648.701 971.5L686.6 925.9L692.201 932.8C691.801 928.7 683.7 845.5 680.8 842.3C679.7 841.1 666.6 834.5 666.1 831.1C665 823.7 664.5 803.8 665.1 798.3C665.234 797.1 665.367 796 665.5 795C666 790.8 666.401 784.4 666.401 784.4L455.5 686.6C455.5 686.6 462.8 770.6 461.3 798.2C459.7 825.8 349.8 875.5 349.8 875.5C337.4 921 494.8 978.7 494.8 978.7Z" fill="#FFC7A0"/>
<path d="M719.701 627.1C722.701 739.6 658.201 830.8 589.601 831.1C511.401 831.5 445.701 743.8 442.701 631.3C439.701 518.9 449.101 424.4 578.801 424C744.401 423.5 716.701 514.7 719.701 627.1Z" fill="#FFC7A0"/>
<path opacity="0.1" d="M471 750.8C471.6 752.4 536.4 915.7 665.2 820.3C664.7 808.1 664.3 800.4 665.8 791.7C645.3 819.8 554.9 884.3 471 750.8Z" fill="black"/>
<path d="M503.2 583.9C503.534 583.7 503.867 583.5 504.2 583.3C521.8 573 539.7 571.9 555.9 580.4C557.3 581.2 558.7 582.1 559.6 584.4C561.2 588.9 560.7 593.5 559.2 600C541.2 586.2 520.8 582.9 499.8 590.4C499.6 588.1 499.8 588 500.8 586.3C501.6 585.1 502.4 584.4 503.2 583.9Z" fill="#191716"/>
<path d="M685.5 584C685.167 583.8 684.834 583.6 684.5 583.4C666.6 573.7 648.6 573.2 632.7 582.2C631.3 582.9 629.9 583.9 629.1 586.3C627.6 590.8 628.3 595.4 630 601.8C647.6 587.5 667.9 583.5 689.1 590.4C689.2 588.1 689 588 687.9 586.4C687.1 585.2 686.3 584.5 685.5 584Z" fill="#191716"/>
<path d="M548.4 617.6C548 627.1 541.2 634.6 533.3 634.2C525.4 633.7 519.3 625.7 519.8 616.1C520.3 606.6 527.1 599.2 535 599.6C542.9 600 548.9 608.1 548.4 617.6Z" fill="#191716"/>
<path d="M671.901 618C671.401 627.6 664.601 635 656.701 634.6C648.801 634.2 642.801 626.1 643.201 616.6C643.701 607 650.501 599.6 658.401 600C666.301 600.4 672.401 608.5 671.901 618Z" fill="#191716"/>
<path opacity="0.1" d="M600.1 624.9C600.4 623.7 600.3 622.5 600 621.4C599.2 618.7 597.4 614.9 594.5 622.2C591.3 630.7 591.4 671.9 595.1 687.3C596 690.8 594.2 694.4 590.9 695.7L585.1 698.2C583.2 698.9 581.7 700.4 581 702.3C580.3 704.4 580.9 706.8 586.9 707.2C597.7 707.8 611 697.4 607.2 687.1C603.5 677.1 595.3 650.6 600.1 624.9Z" fill="#272727"/>
<path d="M442.401 620.1C442.401 620.1 413.501 578.8 399.801 620.3C386.201 661.7 435.401 733.5 455.701 709.4C476.001 685.2 442.401 620.1 442.401 620.1Z" fill="#FFC7A0"/>
<path opacity="0.1" d="M423.301 630.1C421.501 628.6 419.001 628.9 417.801 630.9C416.601 632.9 417.101 635.8 418.901 637.3C419.001 637.4 426.001 643.5 430.701 654.8C425.401 653.9 420.601 655 419.801 655.1C417.701 655.6 416.501 658 417.001 660.5C417.501 662.4 418.901 663.8 420.501 664.1C420.967 664.167 421.434 664.167 421.901 664.1C423.901 663.6 430.001 662.9 433.801 665.2C434.801 670.1 435.201 675.5 434.701 681.6C434.501 684 436.101 686.4 438.201 686.8C438.267 686.8 438.301 686.8 438.301 686.8C440.401 687.2 442.301 685.5 442.501 683.1C445.501 649.5 424.201 630.9 423.301 630.1Z" fill="#272727"/>
<path opacity="0.1" d="M546.7 539.9C546.7 539.9 633.6 540.3 672.4 502.1C711.3 464 632.7 502.6 632.7 502.6L546.7 539.9Z" fill="#272727"/>
<path d="M667.1 499.4C667.1 499.4 618.9 533.5 546.7 539.9C546.7 539.9 568.7 515.5 578.4 510C578.4 510 549.6 518.6 532.4 535.8C532.4 535.8 531.5 526.2 542.2 516.3C542.2 516.3 488.4 538 474.7 569.2C474.7 569.2 470.6 556.3 475 541.2C475 541.2 444.1 591.8 456.5 655.3C456.5 655.3 442.5 595.7 408.9 605.9C408.9 605.9 402.9 581.2 393.6 561.4C384.3 541.7 379.7 487.8 407.1 464C407.1 464 388.4 473.3 383.9 491.2C383.9 491.2 381.2 459.8 411.1 444.5C441 429.2 467.7 362.8 527.2 363C586.7 363.3 622.9 352 640.2 329.2C640.2 329.2 645.9 335.4 643.1 350C643.1 350 658 341.2 656.8 316.5C656.8 316.5 670.4 327.9 669 354.8C669 354.8 707.4 379.4 710.9 397.4C710.9 397.4 716.5 376.2 696.5 360.8C696.5 360.8 761.5 379.6 727.6 458.2C727.6 458.2 740.5 445.4 745.2 452.8C745.2 452.8 731.8 456.5 732.3 465C732.3 465 776 486.3 763.8 531.5C763.8 531.5 752 496.6 736.6 499.8C736.6 499.8 739.2 541.3 731.5 563.1C723.8 584.8 720.1 619.6 720.1 619.6C720.1 619.6 715 601.6 715.3 581.5C715.5 561.3 707.6 525.2 667.1 499.4Z" fill="#191716"/>
<path opacity="0.2" d="M481 531.2C481 531.2 526.6 456.1 587.6 453.5C648.6 451 662.4 409.7 662.4 409.7" stroke="#FEFEFE" stroke-width="0.5" stroke-miterlimit="10" stroke-linecap="round"/>
<path opacity="0.2" d="M554.801 508.6C554.801 508.6 593.201 472.7 622.901 471.1" stroke="#FEFEFE" stroke-width="0.5" stroke-miterlimit="10" stroke-linecap="round"/>
<path opacity="0.2" d="M588.601 505.7C588.601 505.7 652.301 493.1 666.401 468.6" stroke="#FEFEFE" stroke-width="0.5" stroke-miterlimit="10" stroke-linecap="round"/>
<path opacity="0.2" d="M677.801 491C677.801 491 730.701 463.3 730.901 410.6" stroke="#FEFEFE" stroke-width="0.5" stroke-miterlimit="10" stroke-linecap="round"/>
<path opacity="0.2" d="M729.701 498.6C729.701 498.6 718.601 496.7 693.601 502" stroke="#FEFEFE" stroke-width="0.5" stroke-miterlimit="10" stroke-linecap="round"/>
<path opacity="0.2" d="M418.9 456.9C418.9 456.9 435.3 454.7 442.9 447.3C450.4 439.9 512.2 376.9 562.5 385.4C612.8 393.9 635 358.8 635 358.8" stroke="#FEFEFE" stroke-width="0.5" stroke-miterlimit="10" stroke-linecap="round"/>
<path opacity="0.2" d="M436.2 594.5C436.2 594.5 409.7 505.6 465.8 474.9" stroke="#FEFEFE" stroke-width="0.5" stroke-miterlimit="10" stroke-linecap="round"/>
<path opacity="0.2" d="M663.001 363.7C663.001 363.7 646.101 401 606.801 408.9" stroke="#FEFEFE" stroke-width="0.5" stroke-miterlimit="10" stroke-linecap="round"/>
<path opacity="0.2" d="M709.1 410.3C709.1 410.3 707 449 683.5 462.6" stroke="#FEFEFE" stroke-width="0.5" stroke-miterlimit="10" stroke-linecap="round"/>
<path opacity="0.2" d="M501.801 482.1C501.801 482.1 544.301 418.8 576.101 408.5" stroke="#FEFEFE" stroke-width="0.5" stroke-miterlimit="10" stroke-linecap="round"/>
<path d="M564.401 755.3C565.801 756.3 569.401 754.3 574.901 751.7C580.401 749.1 588.101 746 596.801 744.5C605.601 743 613.801 743.4 619.801 744C625.901 744.7 630.001 745.4 630.901 744C631.401 743.3 630.901 742.2 629.601 740.9C628.201 739.5 626.001 737.9 622.801 736.5C619.601 735.1 615.501 733.8 610.801 733.2C606.001 732.5 600.601 732.6 595.001 733.5C589.401 734.5 584.301 736.3 580.001 738.5C575.701 740.6 572.201 743.2 569.701 745.6C567.201 748 565.501 750.2 564.701 751.9C563.801 753.7 563.801 754.9 564.401 755.3Z" fill="#191716"/>
<path d="M468.801 869.1C468.801 869.1 578.601 934.8 674.301 874.7L687.101 929.5L680.801 1900.3H465.601L468.801 869.1Z" fill="white"/>
<path d="M491.9 1900.3H225C230 1713.6 262.4 1563.7 258.3 1511C257.967 1507.33 257.7 1504.23 257.5 1501.7C257 1496.4 256.7 1493.6 256.7 1493.6L105.5 1397.9L194.6 940.5C212.4 896.2 298.1 865.1 323.3 862.2C348.4 859.2 410.5 829.6 410.5 829.6C412 816.3 453.4 813.4 453.4 813.4C443.1 869.6 511.1 902.1 528.8 939.1C546.6 976 560.1 1082.3 567.5 1315.9C574.9 1549.6 491.9 1900.3 491.9 1900.3Z" fill="#FFDC88"/>
<path d="M665.2 820.3C665.2 820.3 688.4 820.7 702.2 835.2C704.3 837.5 707.2 838.7 709.9 840.2C742 857.7 900 904.8 921.9 953.1L880.8 1428.5C880.8 1428.5 882.3 1524.7 874.9 1548.3C874.9 1548.3 910.4 1786.4 907.4 1900.3H666.4C666.4 1900.3 596.9 1314.7 617.6 1125.4C638.3 936.1 641.6 954.1 660.4 915.4C692.2 850.2 665.2 820.3 665.2 820.3Z" fill="#FFDC88"/>
<path d="M420.1 1312.8C410.4 1315.2 308.9 1479.4 231.4 1518.6C225.134 1521.8 219.134 1524.33 213.4 1526.2C164.8 1542.1 134.1 1512.8 108 1455.1C78.7002 1390.6 104.3 1327.2 139.6 1148.2C175 969.2 194.6 940.5 194.6 940.5C267.9 941.2 216.4 1200.6 161.6 1267.5C106.8 1334.5 118.9 1402.7 118.9 1402.7C121.4 1369.9 168.9 1317.5 201.8 1298C234.6 1278.5 318.7 1221.3 319.9 1212.7C321.1 1204.2 365.1 1157.1 374.8 1158.3C375.7 1158.4 377.3 1159.3 379.3 1160.7C397.1 1173.5 449.4 1225.4 464.5 1245C466.9 1248 468.4 1250.2 468.7 1251.4C471.1 1261.2 429.9 1310.3 420.1 1312.8Z" fill="#FFDC88"/>
<path d="M1136.4 1254.4C1136.4 1254.4 1134.1 1365.8 1124.2 1403.2C1114.3 1440.5 1071.5 1448.9 1047.1 1475.6C1022.7 1502.3 973.9 1525.2 934.2 1507.7C911.4 1497.6 897.2 1477.9 889.3 1463C883.6 1452.4 881.1 1444.2 880.9 1443.6C838.301 1403.9 887.701 919.899 921.901 953.099C956.101 986.299 972.4 1122.4 986.9 1181.6C1001.4 1240.7 1004.4 1254.4 1004.4 1254.4C1009.7 1264.4 1022 1281.9 1022 1281.9L1136.4 1254.4Z" fill="#FFDC88"/>
<path opacity="0.15" d="M1033.4 1286.7C1033.4 1286.7 943.6 1287 892 1396.8C892 1396.8 929.7 1286.2 1033.4 1286.7Z" fill="#050505"/>
<path opacity="0.15" d="M470.6 1258.3C466.1 1266.8 433.3 1313 420.1 1315.9C412 1317.7 363.6 1426.7 258.3 1511C257.967 1507.33 257.7 1504.23 257.5 1501.7C329.9 1445.5 411.4 1314.9 420.1 1312.8C429.9 1310.3 471.1 1261.2 468.7 1251.4C468.4 1250.2 466.9 1248 464.5 1245C464.5 1245 475.1 1249.7 470.6 1258.3Z" fill="#050505"/>
<path opacity="0.15" d="M370.8 1156C365.6 1158.8 342.5 1177.4 332 1190C321.5 1202.5 317.7 1210 317.3 1212.6C317 1214.2 312.5 1218.9 304.7 1225.4C306.3 1203.9 307.7 1174.8 306.6 1141.3C304.4 1070.7 253.8 981.1 252.1 978.2C253.6 981.3 302.1 1081.1 302.1 1141.3C302.1 1172.9 301.6 1204.8 301.1 1228.3C296.6 1231.9 291.2 1236 285 1240.4C265.1 1254.5 232.2 1276.7 225.1 1281.3C218.1 1286 200.1 1295.7 191.7 1301.9C183.2 1308.2 119.8 1359.4 118.9 1402.7C121.4 1369.9 168.9 1317.5 201.8 1298C225.1 1284.2 274.1 1251.4 301.1 1230.4C302.234 1229.53 303.367 1228.67 304.5 1227.8C313.6 1220.5 319.6 1215 319.9 1212.7C321.1 1204.2 365.1 1157.1 374.8 1158.3C375.7 1158.4 377.3 1159.3 379.3 1160.7C379.3 1160.7 376.1 1153.2 370.8 1156Z" fill="#050505"/>
<path opacity="0.15" d="M887.6 1350.3C887.3 1390 888.3 1428.6 889.3 1463C883.6 1452.4 881.1 1444.2 880.9 1443.6C880.9 1443.6 880.9 1436.8 881.1 1425.4C881.6 1381.6 883.6 1268.8 891.4 1203.8C901.2 1121.9 901.2 1041 901.2 1041C901.2 1041 907.7 1122.5 896.3 1206.8C890 1252.9 887.9 1302.4 887.6 1350.3Z" fill="#050505"/>
<path opacity="0.15" d="M874.9 1548.3C874.9 1548.3 835.9 1462.7 840 1296C840 1296 827.3 1458 874.9 1548.3Z" fill="#050505"/>
<path opacity="0.15" d="M319.9 1212.7C319.9 1212.7 338.1 1268.3 420.1 1315.9C420.1 1315.9 357.3 1277.1 319.9 1212.7Z" fill="#050505"/>
<path opacity="0.15" d="M466.4 1885.7C466.267 1885.7 466.167 1885.67 466.1 1885.6C465.6 1885.5 465.3 1885 465.5 1884.5C511.3 1725.2 539.2 1510.7 541.9 1296.1C544.4 1104.9 525.2 962.4 494.2 941.3C438.7 903.6 412.6 833.7 412.3 833C412.1 832.5 412.4 832 412.9 831.8C413.4 831.6 413.9 831.9 414.1 832.3C414.3 833 440.2 902.4 495.2 939.8C515.2 953.3 526.6 1010.7 532.6 1056.5C541.1 1120.6 545 1203.5 543.8 1296.2C542.6 1394.2 535.6 1497.2 523.8 1594C510.4 1703.3 491.4 1801.2 467.2 1885C467.1 1885.4 466.8 1885.7 466.4 1885.7Z" fill="#050505"/>
<path opacity="0.15" d="M698.7 1876.9C698.2 1876.9 697.8 1876.6 697.7 1876.2C661.9 1663.3 641.3 1441 639.7 1250.3C638.4 1092 651 972.6 671.6 946.3C709.7 897.6 703.9 843.9 703.8 843.3C703.8 842.8 704.1 842.4 704.6 842.3C705.2 842.3 705.6 842.6 705.7 843.1C705.7 843.7 711.6 898.1 673.1 947.4C652.7 973.5 640.3 1092.3 641.6 1250.3C643.1 1440.9 663.7 1663.1 699.6 1875.8C699.7 1876.3 699.3 1876.8 698.8 1876.9C698.734 1876.9 698.7 1876.9 698.7 1876.9Z" fill="#050505"/>
<path d="M700.6 1161.3C700.6 1161.3 703.8 1174.7 672.8 1183.1C641.9 1191.5 589.9 1208.3 572.1 1214.6C554.3 1220.9 516 1230.8 500.8 1228.7C491.6 1227.5 475.7 1237.1 464.5 1245C449.4 1225.4 397.1 1173.5 379.3 1160.7C383.9 1157.1 411.1 1134.3 412.1 1116.5C413.1 1097.1 406.8 1065.6 422.1 1057.7C437.3 1049.8 454.6 1026.2 465.6 1023.1C471.8 1021.3 477.6 1014 483.6 1010.1C488.3 1007.1 493.1 1006.3 498.1 1012.1C509.7 1025.2 507.1 1058.8 471.9 1074C471.9 1074 484.5 1089.7 533.3 1088.7C582.1 1087.6 687 1067.7 664.4 1111.7C664.4 1111.7 718 1101.8 713.8 1135.4C713.8 1135.4 732.6 1156.2 700.6 1161.3Z" fill="#FFC7A0"/>
<path opacity="0.15" d="M664.4 1111.7C664.4 1111.7 662 1114.3 651.5 1116.1C641 1118 605.2 1124.2 593.8 1129.7C582.4 1135.3 563.2 1135.9 550.3 1139.6C537.3 1143.3 551.8 1139.9 565.7 1138.1C579.6 1136.2 597.8 1131.2 601.5 1128.5C605.2 1125.8 647.8 1118.6 652.8 1117.7C657.7 1116.8 663.4 1114 664.4 1111.7Z" fill="#050505"/>
<path opacity="0.15" d="M713.799 1135.5C713.899 1140.6 711.299 1142.8 705.399 1144.4C701.499 1145.6 696.099 1146.5 689.199 1147.9C688.533 1148.03 687.866 1148.2 687.199 1148.4C687.133 1148.4 687.099 1148.4 687.099 1148.4C669.199 1152.4 639.699 1162.3 629.599 1166.1C621.999 1169.1 605.699 1171.3 597.299 1172.4C594.799 1172.7 592.199 1172.8 589.599 1172.6C574.799 1171.7 559.399 1181.3 558.899 1181.6C565.099 1174.2 577.399 1171.4 591.599 1170.5C605.799 1169.5 620.299 1167.4 627.099 1164.3C633.899 1161.2 654.299 1155.3 666.599 1151.9C678.999 1148.5 695.699 1144.8 704.899 1143C713.399 1141.3 713.799 1136.3 713.799 1135.5Z" fill="#050505"/>
<path opacity="0.15" d="M700.6 1161.3C700.6 1161.3 695.1 1163.7 687.3 1165.2C679.6 1166.8 649.1 1179.4 638.2 1184.1C627.4 1188.7 603.1 1191.2 594.7 1192.7C586.4 1194.2 575.3 1197.6 571.6 1203.8C571.6 1203.8 580.8 1197.3 596.3 1194.6C611.7 1191.8 629 1190.2 641.3 1185C653.7 1179.7 680.9 1168.9 686.1 1167.7C691.3 1166.5 700.7 1163.5 700.6 1161.3Z" fill="#050505"/>
<path opacity="0.15" d="M471.9 1074C471.9 1074 459.2 1080.6 441 1074C441 1074 461.5 1082.7 471.9 1074Z" fill="#050505"/>
<path opacity="0.15" d="M490.1 1126.5C490.1 1126.5 486 1141.1 499.9 1146.4C499.9 1146.4 488.8 1142.1 490.1 1126.5Z" fill="#050505"/>
<path opacity="0.15" d="M512.1 1168.4C512.1 1168.4 508.1 1183.1 522 1188.3C522 1188.3 510.9 1184 512.1 1168.4Z" fill="#050505"/>
<path opacity="0.15" d="M531.3 1198.6C531.3 1198.6 529.7 1210 540.7 1212.7C540.7 1212.7 531.9 1210.5 531.3 1198.6Z" fill="#050505"/>
<path opacity="0.15" d="M446.6 1037.5C446.6 1037.5 446.2 1050.7 460.1 1057.2C460.1 1057.2 444.5 1051.7 446.6 1037.5Z" fill="#050505"/>
<path opacity="0.6" d="M478 1039.9C465.7 1043 465.6 1023.1 465.6 1023.1C471.8 1021.3 477.6 1014 483.6 1010.1C487.9 1017.1 488.1 1037.3 478 1039.9Z" fill="white"/>
<path opacity="0.15" d="M567.5 1108.7C567.5 1108.7 570.7 1129.4 586.7 1132.3C586.7 1132.3 573.7 1129.1 567.5 1108.7Z" fill="#050505"/>
<path opacity="0.15" d="M617.899 1167.1C617.899 1167.1 605.499 1164.6 600.899 1149.5C600.899 1149.5 603.999 1159.7 617.899 1167.1Z" fill="#050505"/>
<path opacity="0.15" d="M617.899 1171.4C617.899 1171.4 619.099 1181 629.299 1184.4C629.299 1184.4 617.899 1182.8 617.899 1171.4Z" fill="#050505"/>
<path opacity="0.6" d="M635.8 1105.4C635.7 1104.3 636.3 1103.3 637.1 1102.7C640.7 1100.2 652.2 1092.8 656.6 1098.3C661.8 1104.8 664.6 1110.9 661.1 1112.5C657.6 1114 644.4 1117 642.7 1116.5C641.3 1116 635.9 1109.9 635.8 1105.4Z" fill="white"/>
<path opacity="0.6" d="M682.2 1128.2C680.7 1130 680.4 1132.5 681.4 1134.5C683.5 1138.7 687.3 1145.1 691.2 1144.4C696.9 1143.4 710.3 1141.9 710.3 1139C710.3 1136.2 700.4 1123.3 695.5 1122.8C692.3 1122.5 685.1 1125 682.2 1128.2Z" fill="white"/>
<path opacity="0.6" d="M710.3 1153.1C710.3 1155.1 699.9 1158.4 694.5 1158.3C689.2 1158.1 687.1 1148.4 687.1 1148.4C687.1 1148.4 687.133 1148.4 687.2 1148.4C687.866 1148.2 688.533 1148.03 689.2 1147.9C696.1 1146.5 701.5 1145.6 705.4 1144.4C708.4 1145.4 710.3 1151.1 710.3 1153.1Z" fill="white"/>
<path opacity="0.15" d="M494.7 1085.1C494.7 1085.1 470.7 1099.1 465.6 1112.8C465.6 1112.8 469.7 1097 494.7 1085.1Z" fill="#050505"/>
<path opacity="0.15" d="M473.4 1088.8C473.4 1088.8 450.3 1089 438.2 1106.4C438.2 1106.4 446.1 1088.8 473.4 1088.8Z" fill="#050505"/>
<path d="M1163.4 1360.8C1163.4 1360.8 1194.1 1369.1 1215 1360.6C1236 1352.2 1275.9 1196.1 1275.9 1196.1C1275.9 1196.1 1267.1 1189 1241.1 1188.3C1215 1187.7 1136.2 1261 1136.2 1261L1130.4 1362.7L1163.4 1360.8Z" fill="#FFC7A0"/>
<path opacity="0.15" d="M1210.6 1357.7C1208.9 1358.9 1181.5 1343.5 1181.5 1343.5L1182.3 1341.7C1192 1346 1204.1 1353.5 1210.6 1357.7Z" fill="#050505"/>
<mask id="mask2_423_1494" style="mask-type:luminance" maskUnits="userSpaceOnUse" x="1311" y="1031" width="9" height="6">
<path d="M1313.6 1032.24L1319.72 1036.8C1319.05 1036.3 1318.17 1036.03 1317.12 1036.05L1311 1031.48C1312.05 1031.46 1312.92 1031.73 1313.6 1032.24Z" fill="white"/>
</mask>
<g mask="url(#mask2_423_1494)">
<path d="M1317.1 1036.1L1311 1031.5C1311.13 1031.5 1311.27 1031.5 1311.4 1031.5L1317.6 1036.1C1317.47 1036.03 1317.3 1036.03 1317.1 1036.1Z" fill="#878787"/>
<path d="M1317.6 1036.1L1311.4 1031.5C1311.6 1031.5 1311.77 1031.5 1311.9 1031.5L1318 1036.1C1317.87 1036.1 1317.73 1036.1 1317.6 1036.1Z" fill="#848383"/>
<path d="M1318 1036.1L1311.9 1031.5C1312.03 1031.57 1312.17 1031.6 1312.3 1031.6L1318.4 1036.2C1318.27 1036.13 1318.13 1036.1 1318 1036.1Z" fill="#807F7F"/>
<path d="M1318.4 1036.2L1312.3 1031.6C1312.43 1031.67 1312.57 1031.7 1312.7 1031.7L1318.8 1036.3C1318.67 1036.23 1318.53 1036.2 1318.4 1036.2Z" fill="#7D7C7C"/>
<path d="M1318.8 1036.3L1312.7 1031.7C1312.83 1031.77 1312.93 1031.83 1313 1031.9L1319.2 1036.5C1319.07 1036.43 1318.93 1036.37 1318.8 1036.3Z" fill="#797878"/>
<path d="M1319.2 1036.5L1313 1031.9C1313.13 1031.97 1313.27 1032.03 1313.4 1032.1L1319.5 1036.7C1319.37 1036.63 1319.27 1036.57 1319.2 1036.5Z" fill="#757575"/>
<path d="M1319.5 1036.7L1313.4 1032.1C1313.47 1032.17 1313.53 1032.2 1313.6 1032.2L1319.7 1036.8C1319.63 1036.73 1319.57 1036.7 1319.5 1036.7Z" fill="#727171"/>
</g>
<mask id="mask3_423_1494" style="mask-type:luminance" maskUnits="userSpaceOnUse" x="949" y="1411" width="9" height="13">
<path d="M957.28 1423.82L951.16 1419.25C949.34 1417.89 948.94 1414.85 950.4 1411.26L956.53 1415.83C955.06 1419.41 955.46 1422.46 957.28 1423.82Z" fill="white"/>
</mask>
<g mask="url(#mask3_423_1494)">
<path d="M957.3 1423.8L951.2 1419.3C949.7 1418.2 949.1 1416 949.8 1413.3L955.9 1417.8C955.3 1420.5 955.8 1422.7 957.3 1423.8Z" fill="#707070"/>
<path d="M955.9 1417.8L949.8 1413.3C949.866 1412.97 949.933 1412.67 950 1412.4L956.1 1416.9C956.033 1417.23 955.967 1417.53 955.9 1417.8Z" fill="#757575"/>
<path d="M956.1 1416.9L950 1412.4C950.067 1412.13 950.167 1411.87 950.3 1411.6L956.4 1416.2C956.267 1416.47 956.167 1416.7 956.1 1416.9Z" fill="#797979"/>
<path d="M956.4 1416.2L950.3 1411.6C950.3 1411.47 950.333 1411.37 950.4 1411.3L956.5 1415.8C956.5 1415.93 956.467 1416.07 956.4 1416.2Z" fill="#7D7D7D"/>
</g>
<mask id="mask4_423_1494" style="mask-type:luminance" maskUnits="userSpaceOnUse" x="1111" y="1043" width="20" height="24">
<path d="M1123.72 1051.39C1124.92 1048.47 1125.07 1045.84 1124.35 1043.96C1126.39 1045.48 1128.43 1047 1130.47 1048.52C1131.2 1050.41 1131.04 1053.03 1129.85 1055.96C1127.45 1061.81 1121.78 1066.63 1117.17 1066.73L1111.05 1062.16C1115.65 1062.06 1121.32 1057.24 1123.72 1051.39Z" fill="white"/>
</mask>
<g mask="url(#mask4_423_1494)">
<path d="M1117.2 1066.7L1111 1062.2C1111.07 1062.2 1111.1 1062.2 1111.1 1062.2L1117.3 1066.7C1117.23 1066.7 1117.2 1066.7 1117.2 1066.7Z" fill="#878787"/>
<path d="M1117.3 1066.7L1111.1 1062.2C1111.37 1062.13 1111.63 1062.1 1111.9 1062.1L1118 1066.7C1117.73 1066.7 1117.5 1066.7 1117.3 1066.7Z" fill="#8B8A8A"/>
<path d="M1118 1066.7L1111.9 1062.1C1112.17 1062.03 1112.47 1061.97 1112.8 1061.9L1118.9 1066.5C1118.57 1066.57 1118.27 1066.63 1118 1066.7Z" fill="#8E8E8E"/>
<path d="M1118.9 1066.5L1112.8 1061.9C1113.2 1061.83 1113.63 1061.7 1114.1 1061.5L1120.2 1066.1C1119.73 1066.23 1119.3 1066.37 1118.9 1066.5Z" fill="#929191"/>
<path d="M1120.2 1066.1L1114.1 1061.5C1115.03 1061.1 1115.97 1060.57 1116.9 1059.9L1123.1 1064.5C1122.17 1065.17 1121.2 1065.7 1120.2 1066.1Z" fill="#969595"/>
<path d="M1123.1 1064.5L1116.9 1059.9C1117.37 1059.57 1117.83 1059.23 1118.3 1058.9L1124.4 1063.5C1123.93 1063.83 1123.5 1064.17 1123.1 1064.5Z" fill="#929191"/>
<path d="M1124.4 1063.5L1118.3 1058.9C1118.57 1058.63 1118.83 1058.37 1119.1 1058.1L1125.2 1062.7C1124.93 1062.97 1124.67 1063.23 1124.4 1063.5Z" fill="#8E8E8E"/>
<path d="M1125.2 1062.7L1119.1 1058.1C1119.37 1057.9 1119.6 1057.67 1119.8 1057.4L1125.9 1062C1125.7 1062.27 1125.47 1062.5 1125.2 1062.7Z" fill="#8B8A8A"/>
<path d="M1125.9 1062L1119.8 1057.4C1120 1057.2 1120.2 1057 1120.4 1056.8L1126.5 1061.4C1126.3 1061.6 1126.1 1061.8 1125.9 1062Z" fill="#878787"/>
<path d="M1126.5 1061.4L1120.4 1056.8C1120.53 1056.6 1120.7 1056.4 1120.9 1056.2L1127 1060.7C1126.87 1060.97 1126.7 1061.2 1126.5 1061.4Z" fill="#848383"/>
<path d="M1127 1060.7L1120.9 1056.2C1121.03 1056 1121.17 1055.8 1121.3 1055.6L1127.5 1060.1C1127.3 1060.3 1127.13 1060.5 1127 1060.7Z" fill="#807F7F"/>
<path d="M1127.5 1060.1L1121.3 1055.6C1121.5 1055.4 1121.67 1055.2 1121.8 1055L1127.9 1059.5C1127.77 1059.7 1127.63 1059.9 1127.5 1060.1Z" fill="#7D7C7C"/>
<path d="M1127.9 1059.5L1121.8 1055C1121.93 1054.8 1122.07 1054.6 1122.2 1054.4L1128.3 1058.9C1128.17 1059.1 1128.03 1059.3 1127.9 1059.5Z" fill="#797878"/>
<path d="M1128.3 1058.9L1122.2 1054.4C1122.33 1054.2 1122.43 1054 1122.5 1053.8L1128.7 1058.3C1128.57 1058.5 1128.43 1058.7 1128.3 1058.9Z" fill="#757575"/>
<path d="M1128.7 1058.3L1122.5 1053.8C1122.63 1053.6 1122.77 1053.37 1122.9 1053.1L1129 1057.7C1128.87 1057.9 1128.77 1058.1 1128.7 1058.3Z" fill="#727171"/>
<path d="M1129 1057.7L1122.9 1053.1C1123.03 1052.9 1123.13 1052.7 1123.2 1052.5L1129.4 1057C1129.27 1057.27 1129.13 1057.5 1129 1057.7Z" fill="#6E6E6E"/>
<path d="M1129.4 1057L1123.2 1052.5C1123.33 1052.23 1123.47 1052 1123.6 1051.8L1129.7 1056.3C1129.57 1056.57 1129.47 1056.8 1129.4 1057Z" fill="#6B6A6A"/>
<path d="M1129.7 1056.3L1123.6 1051.8C1123.6 1051.67 1123.63 1051.53 1123.7 1051.4C1123.77 1051.27 1123.83 1051.13 1123.9 1051L1130 1055.5C1129.93 1055.63 1129.87 1055.8 1129.8 1056C1129.8 1056.07 1129.77 1056.17 1129.7 1056.3Z" fill="#676767"/>
<path d="M1130 1055.5L1123.9 1051C1124.03 1050.67 1124.13 1050.37 1124.2 1050.1L1130.3 1054.7C1130.23 1054.97 1130.13 1055.23 1130 1055.5Z" fill="#646363"/>
<path d="M1130.3 1054.7L1124.2 1050.1C1124.33 1049.7 1124.43 1049.33 1124.5 1049L1130.6 1053.6C1130.53 1053.93 1130.43 1054.3 1130.3 1054.7Z" fill="#606060"/>
<path d="M1130.6 1053.6L1124.5 1049C1125.2 1045.8 1124.6 1043.2 1122.8 1041.9L1128.9 1046.4C1130.7 1047.8 1131.3 1050.4 1130.6 1053.6Z" fill="#5D5C5C"/>
</g>
<mask id="mask5_423_1494" style="mask-type:luminance" maskUnits="userSpaceOnUse" x="1122" y="1041" width="9" height="8">
<path d="M1124.35 1043.96C1124.02 1043.09 1123.51 1042.39 1122.82 1041.88L1128.95 1046.45C1129.63 1046.96 1130.14 1047.65 1130.47 1048.52C1129.45 1047.76 1128.43 1047 1127.41 1046.24C1127.29 1046.15 1127.13 1046.03 1127.01 1045.94C1126.77 1045.76 1126.45 1045.52 1126.21 1045.35C1125.98 1045.17 1125.67 1044.94 1125.44 1044.77C1125.33 1044.68 1125.18 1044.57 1125.06 1044.49C1124.85 1044.33 1124.51 1044.17 1124.35 1043.96Z" fill="white"/>
</mask>
<g mask="url(#mask5_423_1494)">
<path d="M1130.6 1053.6L1124.5 1049C1125.2 1045.8 1124.6 1043.2 1122.8 1041.9L1128.9 1046.4C1130.7 1047.8 1131.3 1050.4 1130.6 1053.6Z" fill="#5D5C5C"/>
</g>
<mask id="mask6_423_1494" style="mask-type:luminance" maskUnits="userSpaceOnUse" x="1108" y="1061" width="10" height="6">
<path d="M1108.14 1061.4C1108.92 1061.93 1109.89 1062.18 1111.05 1062.16L1117.17 1066.73C1116.02 1066.75 1115.05 1066.5 1114.27 1065.97C1112.22 1064.45 1110.18 1062.93 1108.14 1061.4Z" fill="white"/>
</mask>
<g mask="url(#mask6_423_1494)">
<path d="M1114.1 1065.8L1107.9 1061.3C1108.03 1061.37 1108.13 1061.4 1108.2 1061.4L1114.3 1066C1114.23 1065.93 1114.17 1065.87 1114.1 1065.8Z" fill="#727171"/>
<path d="M1114.3 1066L1108.2 1061.4C1108.33 1061.53 1108.47 1061.63 1108.6 1061.7L1114.7 1066.2C1114.57 1066.13 1114.43 1066.07 1114.3 1066Z" fill="#757575"/>
<path d="M1114.7 1066.2L1108.6 1061.7C1108.73 1061.77 1108.87 1061.8 1109 1061.8L1115.1 1066.4C1114.97 1066.33 1114.83 1066.27 1114.7 1066.2Z" fill="#797878"/>
<path d="M1115.1 1066.4L1109 1061.8C1109.13 1061.87 1109.3 1061.93 1109.5 1062L1115.6 1066.6C1115.47 1066.53 1115.3 1066.47 1115.1 1066.4Z" fill="#7D7C7C"/>
<path d="M1115.6 1066.6L1109.5 1062C1109.63 1062.07 1109.8 1062.1 1110 1062.1L1116.1 1066.7C1115.9 1066.63 1115.73 1066.6 1115.6 1066.6Z" fill="#807F7F"/>
<path d="M1116.1 1066.7L1110 1062.1C1110.13 1062.1 1110.3 1062.13 1110.5 1062.2L1116.6 1066.7C1116.47 1066.7 1116.3 1066.7 1116.1 1066.7Z" fill="#848383"/>
<path d="M1116.6 1066.7L1110.5 1062.2C1110.7 1062.2 1110.87 1062.2 1111 1062.2L1117.2 1066.7C1117 1066.7 1116.8 1066.7 1116.6 1066.7Z" fill="#878787"/>
</g>
<mask id="mask7_423_1494" style="mask-type:luminance" maskUnits="userSpaceOnUse" x="1107" y="1061" width="8" height="5">
<path d="M1107.94 1061.27C1108.01 1061.32 1108.07 1061.36 1108.14 1061.4C1110.18 1062.93 1112.22 1064.45 1114.27 1065.97C1114.2 1065.93 1114.13 1065.88 1114.07 1065.83C1112.23 1064.46 1109.78 1062.64 1107.94 1061.27Z" fill="white"/>
</mask>
<g mask="url(#mask7_423_1494)">
<path d="M1114.1 1065.8L1107.9 1061.3C1108.03 1061.37 1108.13 1061.4 1108.2 1061.4L1114.3 1066C1114.23 1065.93 1114.17 1065.87 1114.1 1065.8Z" fill="#727171"/>
</g>
<mask id="mask8_423_1494" style="mask-type:luminance" maskUnits="userSpaceOnUse" x="1119" y="1040" width="10" height="7">
<path d="M1122.82 1041.88L1128.95 1046.45C1128.14 1045.85 1127.1 1045.52 1125.85 1045.55L1119.73 1040.98C1120.98 1040.96 1122.02 1041.28 1122.82 1041.88Z" fill="white"/>
</mask>
<g mask="url(#mask8_423_1494)">
<path d="M1125.9 1045.6L1119.7 1041C1119.9 1041 1120.1 1041 1120.3 1041L1126.4 1045.6C1126.2 1045.53 1126.03 1045.53 1125.9 1045.6Z" fill="#C2C2C2"/>
<path d="M1126.4 1045.6L1120.3 1041C1120.43 1041 1120.6 1041.03 1120.8 1041.1L1126.9 1045.6C1126.77 1045.6 1126.6 1045.6 1126.4 1045.6Z" fill="#BDBDBD"/>
<path d="M1126.9 1045.6L1120.8 1041.1C1121 1041.1 1121.17 1041.13 1121.3 1041.2L1127.4 1045.7C1127.27 1045.7 1127.1 1045.67 1126.9 1045.6Z" fill="#B8B8B8"/>
<path d="M1127.4 1045.7L1121.3 1041.2C1121.43 1041.2 1121.6 1041.23 1121.8 1041.3L1127.9 1045.9C1127.77 1045.83 1127.6 1045.77 1127.4 1045.7Z" fill="#B3B3B3"/>
<path d="M1127.9 1045.9L1121.8 1041.3C1121.93 1041.37 1122.07 1041.43 1122.2 1041.5L1128.3 1046C1128.17 1045.93 1128.03 1045.9 1127.9 1045.9Z" fill="#ADADAD"/>
<path d="M1128.3 1046L1122.2 1041.5C1122.33 1041.57 1122.47 1041.63 1122.6 1041.7L1128.7 1046.3C1128.57 1046.17 1128.43 1046.07 1128.3 1046Z" fill="#A8A8A8"/>
<path d="M1128.7 1046.3L1122.6 1041.7C1122.67 1041.77 1122.73 1041.83 1122.8 1041.9L1128.9 1046.4C1128.83 1046.4 1128.77 1046.37 1128.7 1046.3Z" fill="#A3A3A3"/>
</g>
<mask id="mask9_423_1494" style="mask-type:luminance" maskUnits="userSpaceOnUse" x="1105" y="1040" width="21" height="26">
<path d="M1114.07 1065.83L1107.94 1061.27C1105.78 1059.65 1105.3 1056.02 1107.04 1051.76C1109.44 1045.91 1115.12 1041.09 1119.73 1040.98L1125.85 1045.55C1121.24 1045.65 1115.57 1050.48 1113.17 1056.33C1111.42 1060.59 1111.9 1064.22 1114.07 1065.83Z" fill="white"/>
</mask>
<g mask="url(#mask9_423_1494)">
<path d="M1114.1 1065.8L1107.9 1061.3C1106.2 1060 1105.5 1057.3 1106.3 1054.1L1112.4 1058.7C1111.7 1061.9 1112.3 1064.5 1114.1 1065.8Z" fill="#858585"/>
<path d="M1112.4 1058.7L1106.3 1054.1C1106.37 1053.77 1106.47 1053.43 1106.6 1053.1L1112.7 1057.6C1112.57 1058 1112.47 1058.37 1112.4 1058.7Z" fill="#8A8A8A"/>
<path d="M1112.7 1057.6L1106.6 1053.1C1106.67 1052.77 1106.77 1052.47 1106.9 1052.2L1113 1056.7C1112.87 1057.03 1112.77 1057.33 1112.7 1057.6Z" fill="#8F8F8F"/>
<path d="M1113 1056.7L1106.9 1052.2C1106.97 1052.07 1107 1051.93 1107 1051.8C1107.07 1051.67 1107.13 1051.53 1107.2 1051.4L1113.3 1056C1113.23 1056.07 1113.2 1056.17 1113.2 1056.3C1113.13 1056.43 1113.07 1056.57 1113 1056.7Z" fill="#949494"/>
<path d="M1113.3 1056L1107.2 1051.4C1107.33 1051.13 1107.43 1050.9 1107.5 1050.7L1113.7 1055.2C1113.57 1055.47 1113.43 1055.73 1113.3 1056Z" fill="#999999"/>
<path d="M1113.7 1055.2L1107.5 1050.7C1107.63 1050.43 1107.77 1050.2 1107.9 1050L1114 1054.6C1113.87 1054.8 1113.77 1055 1113.7 1055.2Z" fill="#9E9E9E"/>
<path d="M1114 1054.6L1107.9 1050C1107.97 1049.8 1108.07 1049.6 1108.2 1049.4L1114.4 1054C1114.27 1054.2 1114.13 1054.4 1114 1054.6Z" fill="#A3A3A3"/>
<path d="M1114.4 1054L1108.2 1049.4C1108.33 1049.2 1108.47 1049 1108.6 1048.8L1114.7 1053.3C1114.57 1053.5 1114.47 1053.73 1114.4 1054Z" fill="#A8A8A8"/>
<path d="M1114.7 1053.3L1108.6 1048.8C1108.73 1048.6 1108.87 1048.4 1109 1048.2L1115.1 1052.7C1114.97 1052.9 1114.83 1053.1 1114.7 1053.3Z" fill="#ADADAD"/>
<path d="M1115.1 1052.7L1109 1048.2C1109.13 1048 1109.27 1047.8 1109.4 1047.6L1115.5 1052.2C1115.37 1052.33 1115.23 1052.5 1115.1 1052.7Z" fill="#B3B3B3"/>
<path d="M1115.5 1052.2L1109.4 1047.6C1109.53 1047.4 1109.7 1047.2 1109.9 1047L1116 1051.5C1115.87 1051.7 1115.7 1051.93 1115.5 1052.2Z" fill="#B8B8B8"/>
<path d="M1116 1051.5L1109.9 1047C1110.03 1046.8 1110.2 1046.6 1110.4 1046.4L1116.5 1050.9C1116.37 1051.1 1116.2 1051.3 1116 1051.5Z" fill="#BDBDBD"/>
<path d="M1116.5 1050.9L1110.4 1046.4C1110.6 1046.13 1110.8 1045.9 1111 1045.7L1117.1 1050.3C1116.9 1050.5 1116.7 1050.7 1116.5 1050.9Z" fill="#C2C2C2"/>
<path d="M1117.1 1050.3L1111 1045.7C1111.2 1045.5 1111.43 1045.27 1111.7 1045L1117.8 1049.6C1117.53 1049.8 1117.3 1050.03 1117.1 1050.3Z" fill="#C7C7C7"/>
<path d="M1117.8 1049.6L1111.7 1045C1111.97 1044.73 1112.23 1044.5 1112.5 1044.3L1118.6 1048.8C1118.33 1049.07 1118.07 1049.33 1117.8 1049.6Z" fill="#CCCCCC"/>
<path d="M1118.6 1048.8L1112.5 1044.3C1112.97 1043.9 1113.4 1043.53 1113.8 1043.2L1120 1047.8C1119.53 1048.13 1119.07 1048.47 1118.6 1048.8Z" fill="#D1D1D1"/>
<path d="M1120 1047.8L1113.8 1043.2C1114.73 1042.53 1115.7 1042.03 1116.7 1041.7L1122.8 1046.2C1121.87 1046.6 1120.93 1047.13 1120 1047.8Z" fill="#D6D6D6"/>
<path d="M1122.8 1046.2L1116.7 1041.7C1117.17 1041.5 1117.6 1041.33 1118 1041.2L1124.1 1045.8C1123.7 1045.93 1123.27 1046.07 1122.8 1046.2Z" fill="#D1D1D1"/>
<path d="M1124.1 1045.8L1118 1041.2C1118.33 1041.13 1118.63 1041.07 1118.9 1041L1125 1045.6C1124.73 1045.67 1124.43 1045.73 1124.1 1045.8Z" fill="#CCCCCC"/>
<path d="M1125 1045.6L1118.9 1041C1119.17 1041 1119.4 1041 1119.6 1041L1125.8 1045.6C1125.53 1045.6 1125.27 1045.6 1125 1045.6Z" fill="#C7C7C7"/>
<path d="M1125.8 1045.6L1119.6 1041C1119.67 1041 1119.7 1041 1119.7 1041L1125.9 1045.6C1125.83 1045.6 1125.8 1045.6 1125.8 1045.6Z" fill="#C2C2C2"/>
</g>
<path d="M1097 1073L1090.9 1068.4L1304.8 1063.6L1310.9 1068.2L1097 1073Z" fill="#B2B2B2"/>
<path fill-rule="evenodd" clip-rule="evenodd" d="M1317.1 1036.1C1321 1036 1322.5 1039.9 1320.5 1044.8L1310.9 1068.2L1097 1073L1106.6 1049.6C1108.6 1044.7 1113.4 1040.6 1117.2 1040.5L1317.1 1036.1ZM1117.2 1066.8C1121.8 1066.7 1127.5 1061.9 1129.9 1056C1132.3 1050.2 1130.5 1045.5 1125.9 1045.6C1121.3 1045.7 1115.6 1050.6 1113.2 1056.4C1110.8 1062.3 1112.6 1066.9 1117.2 1066.8Z" fill="#848383"/>
<path d="M1125.9 1045.6C1130.5 1045.4 1132.2 1050.1 1129.8 1056C1127.4 1061.8 1121.8 1066.6 1117.2 1066.7C1112.6 1066.8 1110.8 1062.2 1113.2 1056.3C1115.6 1050.5 1121.2 1045.7 1125.9 1045.6Z" fill="#BDBDBD"/>
<path d="M1117.2 1040.5L1111.1 1036L1311 1031.5L1317.1 1036.1L1117.2 1040.5Z" fill="#929292"/>
<path d="M956.5 1415.8L950.4 1411.3L1100.5 1045L1106.6 1049.6L956.5 1415.8Z" fill="#8A8A8A"/>
<path d="M1106.6 1049.6L1097 1073L1310.9 1068.2L1170.4 1411C1168.4 1416 1163.6 1420 1159.8 1420.1L959.9 1424.6C956 1424.7 954.5 1420.7 956.5 1415.8L1106.6 1049.6Z" fill="#A0A0A0"/>
<path d="M1097 1073L1090.9 1068.4L1100.5 1045L1106.6 1049.6L1097 1073Z" fill="#727171"/>
<mask id="mask10_423_1494" style="mask-type:luminance" maskUnits="userSpaceOnUse" x="1100" y="1035" width="18" height="15">
<path d="M1106.58 1049.6L1100.46 1045.04C1102.48 1040.12 1107.25 1036.05 1111.12 1035.97L1117.25 1040.54C1113.38 1040.62 1108.6 1044.68 1106.58 1049.6Z" fill="white"/>
</mask>
<g mask="url(#mask10_423_1494)">
<path d="M1106.6 1049.6L1100.5 1045C1100.5 1044.93 1100.53 1044.83 1100.6 1044.7L1106.7 1049.3C1106.63 1049.37 1106.6 1049.47 1106.6 1049.6Z" fill="#676767"/>
<path d="M1106.7 1049.3L1100.6 1044.7C1100.67 1044.5 1100.77 1044.3 1100.9 1044.1L1107 1048.7C1106.87 1048.9 1106.77 1049.1 1106.7 1049.3Z" fill="#6B6A6A"/>
<path d="M1107 1048.7L1100.9 1044.1C1100.97 1043.9 1101.07 1043.73 1101.2 1043.6L1107.3 1048.1C1107.17 1048.3 1107.07 1048.5 1107 1048.7Z" fill="#6E6E6E"/>
<path d="M1107.3 1048.1L1101.2 1043.6C1101.27 1043.4 1101.37 1043.2 1101.5 1043L1107.6 1047.6C1107.47 1047.8 1107.37 1047.97 1107.3 1048.1Z" fill="#727171"/>
<path d="M1107.6 1047.6L1101.5 1043C1101.57 1042.87 1101.67 1042.7 1101.8 1042.5L1107.9 1047.1C1107.77 1047.23 1107.67 1047.4 1107.6 1047.6Z" fill="#757575"/>
<path d="M1107.9 1047.1L1101.8 1042.5C1101.87 1042.37 1101.97 1042.2 1102.1 1042L1108.2 1046.6C1108.13 1046.73 1108.03 1046.9 1107.9 1047.1Z" fill="#797878"/>
<path d="M1108.2 1046.6L1102.1 1042C1102.23 1041.87 1102.37 1041.7 1102.5 1041.5L1108.6 1046.1C1108.47 1046.23 1108.33 1046.4 1108.2 1046.6Z" fill="#7D7C7C"/>
<path d="M1108.6 1046.1L1102.5 1041.5C1102.57 1041.37 1102.67 1041.2 1102.8 1041L1109 1045.6C1108.87 1045.73 1108.73 1045.9 1108.6 1046.1Z" fill="#807F7F"/>
<path d="M1109 1045.6L1102.8 1041C1103 1040.8 1103.17 1040.63 1103.3 1040.5L1109.4 1045.1C1109.27 1045.23 1109.13 1045.4 1109 1045.6Z" fill="#848383"/>
<path d="M1109.4 1045.1L1103.3 1040.5C1103.43 1040.3 1103.6 1040.1 1103.8 1039.9L1109.9 1044.5C1109.7 1044.7 1109.53 1044.9 1109.4 1045.1Z" fill="#878787"/>
<path d="M1109.9 1044.5L1103.8 1039.9C1104 1039.77 1104.17 1039.6 1104.3 1039.4L1110.5 1043.9C1110.3 1044.1 1110.1 1044.3 1109.9 1044.5Z" fill="#8B8A8A"/>
<path d="M1110.5 1043.9L1104.3 1039.4C1104.57 1039.13 1104.83 1038.9 1105.1 1038.7L1111.2 1043.3C1110.93 1043.5 1110.7 1043.7 1110.5 1043.9Z" fill="#8E8E8E"/>
<path d="M1111.2 1043.3L1105.1 1038.7C1105.43 1038.43 1105.8 1038.17 1106.2 1037.9L1112.3 1042.4C1111.9 1042.67 1111.53 1042.97 1111.2 1043.3Z" fill="#929191"/>
<path d="M1112.3 1042.4L1106.2 1037.9C1107 1037.3 1107.8 1036.83 1108.6 1036.5L1114.7 1041.1C1113.9 1041.43 1113.1 1041.87 1112.3 1042.4Z" fill="#969595"/>
<path d="M1114.7 1041.1L1108.6 1036.5C1108.93 1036.37 1109.3 1036.27 1109.7 1036.2L1115.8 1040.7C1115.47 1040.83 1115.1 1040.97 1114.7 1041.1Z" fill="#929191"/>
<path d="M1115.8 1040.7L1109.7 1036.2C1109.97 1036.13 1110.2 1036.07 1110.4 1036L1116.6 1040.6C1116.33 1040.6 1116.07 1040.63 1115.8 1040.7Z" fill="#8E8E8E"/>
<path d="M1116.6 1040.6L1110.4 1036C1110.67 1036 1110.9 1036 1111.1 1036L1117.2 1040.5C1117 1040.5 1116.8 1040.53 1116.6 1040.6Z" fill="#8B8A8A"/>
</g>
<path d="M1289.4 1263.3C1288 1274.5 1271.1 1281.6 1273.5 1297.5C1275.9 1313.3 1270.5 1316.4 1265.7 1322.1C1261 1327.9 1256.6 1349.8 1244.8 1352.9C1233 1355.9 1225.9 1361.7 1215.1 1360.6C1215.1 1360.6 1213.3 1359.5 1210.6 1357.7C1204.1 1353.5 1192 1346 1182.3 1341.7C1168.4 1335.6 1143.8 1321.8 1148.5 1308.6C1153.2 1295.4 1159.6 1295.4 1163.7 1294.8C1163.7 1294.8 1150.9 1285.3 1157.6 1271.1C1164.4 1256.9 1174.2 1261 1174.2 1261C1174.2 1261 1170.5 1237.4 1187.7 1232.6C1204.9 1227.9 1212.7 1230.9 1212.7 1230.9C1212.7 1230.9 1204.6 1207.9 1223.5 1199.5C1242.4 1191 1275.9 1196.1 1275.9 1196.1C1275.9 1196.1 1288.4 1201.5 1287.3 1216C1286.4 1230 1283.5 1237.7 1275 1238.9C1274.6 1238.97 1274.2 1239 1273.8 1239C1273.8 1239 1274.3 1239.4 1275 1239.9C1278.7 1243.2 1290.5 1254 1289.4 1263.3Z" fill="#FFC7A0"/>
<path opacity="0.15" d="M1275 1239.9C1275 1239.9 1261.2 1239.4 1240.1 1239.5C1219.4 1239.7 1212.9 1231.2 1212.7 1230.9C1225 1238.8 1232.9 1238.4 1240 1238.4C1247 1238.4 1260 1238 1275 1238.9C1274.6 1238.97 1274.2 1239 1273.8 1239C1273.8 1239 1274.3 1239.4 1275 1239.9Z" fill="#050505"/>
<path opacity="0.15" d="M1174.2 1261C1174.2 1261 1180.2 1271 1196.1 1272.1C1212 1273.1 1227.6 1276.3 1236.8 1277.7C1245.9 1279.1 1254.5 1282.4 1255.9 1283.7C1257.2 1284.9 1247.9 1280.9 1236.2 1278.8C1224.4 1276.6 1206.5 1273.1 1196.3 1273.1C1186 1273.1 1174.5 1265 1174.2 1261Z" fill="#050505"/>
<path opacity="0.15" d="M1163.7 1294.8C1163.7 1294.8 1172.8 1301.5 1186.3 1305.4C1199.9 1309.2 1223.9 1324.5 1240.1 1323.2C1240.1 1323.2 1236.5 1327.5 1216 1318.8C1195.5 1310.1 1192.9 1308.4 1185.7 1306.6C1178.6 1304.7 1166.4 1297.3 1163.7 1294.8Z" fill="#050505"/>
<path opacity="0.6" d="M1151.3 1313.3C1151.3 1313.3 1159.3 1324.6 1165.7 1324.1C1172.1 1323.5 1178.6 1309.5 1176.4 1306.4C1174.3 1303.3 1164.3 1297 1160.4 1298C1156.4 1299.1 1149.3 1309.5 1151.3 1313.3Z" fill="white"/>
<path opacity="0.6" d="M1158.4 1280.8C1158.4 1280.8 1166.8 1292.7 1173.5 1292C1180.3 1291.4 1187 1276.8 1184.8 1273.5C1182.5 1270.3 1172.1 1263.6 1167.9 1264.7C1163.8 1265.8 1156.3 1276.8 1158.4 1280.8Z" fill="white"/>
<path opacity="0.6" d="M1180.4 1259.7C1180.4 1259.7 1194.3 1267.3 1200.6 1263.5C1206.8 1259.7 1206.4 1242.2 1202.7 1240.1C1199 1238 1185.6 1236.4 1182.1 1239.5C1178.5 1242.6 1176.5 1256.8 1180.4 1259.7Z" fill="white"/>
<path opacity="0.6" d="M1217.6 1226.5C1217.6 1226.5 1230.1 1233.4 1235.7 1229.9C1241.4 1226.5 1241 1210.8 1237.7 1208.9C1234.3 1207 1222.3 1205.6 1219.1 1208.4C1215.9 1211.1 1214.1 1223.9 1217.6 1226.5Z" fill="white"/>
<path opacity="0.15" d="M1225.6 1281.7C1225.6 1281.7 1228.8 1301.1 1213.4 1310.2C1213.4 1310.2 1226.4 1303.4 1225.6 1281.7Z" fill="#050505"/>
<path opacity="0.15" d="M1240.5 1242.5C1240.5 1242.5 1246.4 1261.3 1232.3 1272.5C1232.3 1272.5 1244.3 1263.9 1240.5 1242.5Z" fill="#050505"/>
<path opacity="0.15" d="M1209.6 1320.7C1209.6 1320.7 1211 1338.1 1196.6 1345C1196.6 1345 1208.6 1339.9 1209.6 1320.7Z" fill="#050505"/>
</g>
</g>
<defs>
<clipPath id="clip0_423_1494">
<rect width="2000" height="2000" fill="white"/>
</clipPath>
</defs>
</svg>
