<svg width="23" height="15" viewBox="0 0 23 15" fill="none" xmlns="http://www.w3.org/2000/svg">
<path d="M22.9339 7.19625C22.9003 7.12219 22.0886 5.36062 20.2841 3.59531C17.8796 1.24312 14.8427 0 11.5 0C8.15733 0 5.12037 1.24312 2.71591 3.59531C0.911367 5.36062 0.0958242 7.125 0.0661159 7.19625C0.0225243 7.29217 0 7.39597 0 7.50094C0 7.60591 0.0225243 7.70971 0.0661159 7.80562C0.0996576 7.87969 0.911367 9.64031 2.71591 11.4056C5.12037 13.7569 8.15733 15 11.5 15C14.8427 15 17.8796 13.7569 20.2841 11.4056C22.0886 9.64031 22.9003 7.87969 22.9339 7.80562C22.9775 7.70971 23 7.60591 23 7.50094C23 7.39597 22.9775 7.29217 22.9339 7.19625ZM11.5 13.5C8.55025 13.5 5.97329 12.4509 3.84004 10.3828C2.96474 9.53128 2.22006 8.56027 1.62916 7.5C2.2199 6.43963 2.96459 5.4686 3.84004 4.61719C5.97329 2.54906 8.55025 1.5 11.5 1.5C14.4498 1.5 17.0267 2.54906 19.16 4.61719C20.037 5.4684 20.7833 6.43942 21.3756 7.5C20.6847 8.76188 17.6745 13.5 11.5 13.5ZM11.5 3C10.5902 3 9.70084 3.26392 8.94437 3.75839C8.18791 4.25285 7.59831 4.95566 7.25015 5.77792C6.90199 6.60019 6.81089 7.50499 6.98838 8.37791C7.16588 9.25082 7.60398 10.0526 8.24731 10.682C8.89063 11.3113 9.71027 11.7399 10.6026 11.9135C11.4949 12.0872 12.4198 11.9981 13.2603 11.6575C14.1009 11.3169 14.8193 10.7401 15.3248 10.0001C15.8302 9.26005 16.1 8.39002 16.1 7.5C16.0987 6.30691 15.6137 5.16303 14.7513 4.31939C13.8889 3.47575 12.7196 3.00124 11.5 3ZM11.5 10.5C10.8935 10.5 10.3006 10.3241 9.79625 9.99441C9.29194 9.66476 8.89888 9.19623 8.66677 8.64805C8.43466 8.09987 8.37393 7.49667 8.49226 6.91473C8.61058 6.33279 8.90266 5.79824 9.33154 5.37868C9.76042 4.95912 10.3068 4.6734 10.9017 4.55764C11.4966 4.44189 12.1132 4.5013 12.6736 4.72836C13.2339 4.95542 13.7129 5.33994 14.0498 5.83329C14.3868 6.32664 14.5667 6.90666 14.5667 7.5C14.5667 8.29565 14.2436 9.05871 13.6685 9.62132C13.0933 10.1839 12.3133 10.5 11.5 10.5Z" fill="#B1B1B1"/>
</svg>
