<svg width="26" height="36" viewBox="0 0 26 36" fill="none" xmlns="http://www.w3.org/2000/svg">
<g filter="url(#filter0_d_340_324)">
<path d="M19.9478 16.0651C21.5258 15.2238 22.8988 13.7523 23.1029 12.2058C23.4659 9.452 21.7019 7.37992 19.4496 6.42466C16.7595 5.28338 18.5545 6.10075 8.26452 3.39128C3.3187 2.0892 3.00213 0.875049 3.1131 0C1.77691 0.875049 1.36648 5.64192 3.68265 7.07545C6.06358 8.54888 10.8073 8.8558 16.7687 10.5496C22.0099 12.039 21.2343 14.7835 19.9478 16.0651Z" fill="url(#paint0_linear_340_324)"/>
<path d="M21.0068 16.874C20.5516 16.6039 20.0553 16.3814 19.5258 16.215C12.0698 14.5053 11.4156 14.5415 8.94162 13.94C2.2 12.3006 3.01016 10.9351 2.83804 10.39C1.59518 11.7154 1.57406 15.8609 3.87826 17.1044C6.6727 18.6125 11.5898 19.1051 17.821 20.657C19.8476 21.1618 21.0351 21.7641 21.9219 22.4774C22.9062 23.2693 23.1763 24.4269 22.4219 25.3979C21.7617 26.2475 19.9977 26.1087 18.0422 25.8359C14.5739 25.3523 10.1762 24.3451 8.94149 24.0027C3.39342 22.4648 3.01004 20.9978 2.83791 20.453C1.59505 21.7784 1.57393 25.9236 3.87813 27.1673C5.70496 28.1532 7.43896 28.7199 11.1974 28.9461C13.9503 29.1116 18.9507 29.2667 21.3998 26.722C21.6383 26.4747 23.5431 25.0313 23.9371 22.5448C24.3037 20.2337 23.035 18.0776 21.0068 16.874Z" fill="url(#paint1_linear_340_324)"/>
<path d="M15.138 15.2376C15.1374 15.2377 15.137 15.2378 15.1362 15.238C17.3691 15.7205 19.5256 16.215 19.5256 16.215C19.5623 16.2266 19.5989 16.2392 19.6355 16.2513C19.7417 16.1916 19.8466 16.13 19.948 16.0647C21.2343 14.7829 22.0092 12.0389 16.7687 10.5496C16.4069 10.4469 16.0498 10.3494 15.6972 10.2561C17.1662 10.8508 19.2406 14.0729 15.138 15.2376Z" fill="url(#paint2_linear_340_324)"/>
<path d="M16.5137 25.3015C16.414 25.3816 16.3106 25.4552 16.2039 25.524C16.8302 25.6463 17.4497 25.7531 18.0421 25.8358C19.9975 26.1086 21.7616 26.2472 22.4218 25.3978C23.1762 24.4268 22.9063 23.2693 21.9218 22.4773C20.2923 21.1667 18.1815 20.7237 16.0356 20.2299C17.6041 20.9432 18.9205 23.3609 16.5137 25.3015Z" fill="url(#paint3_linear_340_324)"/>
</g>
<defs>
<filter id="filter0_d_340_324" x="0" y="0" width="26" height="35.0263" filterUnits="userSpaceOnUse" color-interpolation-filters="sRGB">
<feFlood flood-opacity="0" result="BackgroundImageFix"/>
<feColorMatrix in="SourceAlpha" type="matrix" values="0 0 0 0 0 0 0 0 0 0 0 0 0 0 0 0 0 0 127 0" result="hardAlpha"/>
<feOffset dy="4"/>
<feGaussianBlur stdDeviation="1"/>
<feComposite in2="hardAlpha" operator="out"/>
<feColorMatrix type="matrix" values="0 0 0 0 0 0 0 0 0 0 0 0 0 0 0 0 0 0 0.5 0"/>
<feBlend mode="normal" in2="BackgroundImageFix" result="effect1_dropShadow_340_324"/>
<feBlend mode="normal" in="SourceGraphic" in2="effect1_dropShadow_340_324" result="shape"/>
</filter>
<linearGradient id="paint0_linear_340_324" x1="29.7445" y1="9.90752" x2="-1.45029" y2="6.69628" gradientUnits="userSpaceOnUse">
<stop offset="0.0667" stop-color="#60A3FA"/>
<stop offset="0.6848" stop-color="#1A73E6"/>
<stop offset="0.9636" stop-color="#0153C0"/>
</linearGradient>
<linearGradient id="paint1_linear_340_324" x1="2.00016" y1="19.7081" x2="24.0001" y2="19.7081" gradientUnits="userSpaceOnUse">
<stop offset="0.0364" stop-color="#0050B8"/>
<stop offset="0.3152" stop-color="#0062E0"/>
<stop offset="0.9333" stop-color="#6EADFE"/>
</linearGradient>
<linearGradient id="paint2_linear_340_324" x1="18.3415" y1="12.5239" x2="14.5254" y2="17.3518" gradientUnits="userSpaceOnUse">
<stop offset="0.0364" stop-color="#1877F2"/>
<stop offset="0.3152" stop-color="#3A8CF7"/>
<stop offset="0.9333" stop-color="#60A5FD"/>
</linearGradient>
<linearGradient id="paint3_linear_340_324" x1="19.4668" y1="22.2738" x2="17.1739" y2="30.041" gradientUnits="userSpaceOnUse">
<stop offset="0.0364" stop-color="#1877F2"/>
<stop offset="0.3152" stop-color="#6FAEFF"/>
<stop offset="0.9333" stop-color="#6AABFF"/>
</linearGradient>
</defs>
</svg>
